<?xml version="1.0" encoding="UTF-8" standalone="no"?>
<!-- Created with Inkscape (http://www.inkscape.org/) -->

<svg
   xmlns:dc="http://purl.org/dc/elements/1.1/"
   xmlns:cc="http://creativecommons.org/ns#"
   xmlns:rdf="http://www.w3.org/1999/02/22-rdf-syntax-ns#"
   xmlns:svg="http://www.w3.org/2000/svg"
   xmlns="http://www.w3.org/2000/svg"
   xmlns:sodipodi="http://sodipodi.sourceforge.net/DTD/sodipodi-0.dtd"
   xmlns:inkscape="http://www.inkscape.org/namespaces/inkscape"
   version="1.1"
   id="svg2"
   width="76.800003"
   height="76.800003"
   viewBox="0 0 76.800003 76.800003"
   sodipodi:docname="happy.svg"
   inkscape:version="0.92.4 5da689c313, 2019-01-14">
  <metadata
     id="metadata8">
    <rdf:RDF>
      <cc:Work
         rdf:about="">
        <dc:format>image/svg+xml</dc:format>
        <dc:type
           rdf:resource="http://purl.org/dc/dcmitype/StillImage" />
        <dc:title></dc:title>
      </cc:Work>
    </rdf:RDF>
  </metadata>
  <defs
     id="defs6" />
  <sodipodi:namedview
     pagecolor="#ffffff"
     bordercolor="#666666"
     borderopacity="1"
     objecttolerance="10"
     gridtolerance="10"
     guidetolerance="10"
     inkscape:pageopacity="0"
     inkscape:pageshadow="2"
     inkscape:window-width="857"
     inkscape:window-height="480"
     id="namedview4"
     showgrid="false"
     inkscape:zoom="3.0729165"
     inkscape:cx="44.762218"
     inkscape:cy="38.400002"
     inkscape:window-x="0"
     inkscape:window-y="0"
     inkscape:window-maximized="0"
     inkscape:current-layer="svg2" />
  <g
     id="g836"
     transform="translate(0.6395111,1.0111259)">
    <path
       style="fill:#b9d3c5;stroke-width:0.32000002"
       d="M 33.920001,75.491318 C 30.323599,74.931696 28.255598,74.437357 25.850926,73.562473 10.363926,67.927887 0.33462427,52.624146 1.4440839,36.320001 c 0.3791012,-5.571109 1.4057644,-9.36698 3.8514712,-14.24 2.9270705,-5.832128 7.1595089,-10.617522 12.5854829,-14.2297396 4.18882,-2.78861 8.283683,-4.5257784 13.318963,-5.6503185 2.559821,-0.5716902 11.84018,-0.5716902 14.400001,0 5.03528,1.1245401 9.130144,2.8617085 13.318964,5.6503185 19.823283,13.1968956 22.216298,41.2793376 4.917795,57.7112226 -2.362269,2.243927 -6.231956,4.989002 -9.008695,6.390586 -6.039542,3.048512 -14.671485,4.509699 -20.908065,3.539248 z"
       id="path902"
       inkscape:connector-curvature="0" />
    <path
       style="fill:#a5c6b4;stroke-width:0.32000002"
       d="M 32.800001,75.013155 C 24.978975,73.805078 18.138266,70.321376 12.459658,64.654623 -1.7137847,50.510773 -2.0280819,27.829023 11.749544,13.408144 16.85721,8.0620096 22.795313,4.6115464 29.991514,2.8082519 c 4.075582,-1.021299 12.741393,-1.021299 16.816974,0 7.196202,1.8032945 13.134305,5.2537577 18.241972,10.5998921 13.777626,14.420879 13.463329,37.102629 -0.710115,51.246479 -5.742909,5.730916 -12.614004,9.19793 -20.541412,10.364775 -4.055408,0.596919 -7.105309,0.595187 -10.998932,-0.0062 z"
       id="path900"
       inkscape:connector-curvature="0" />
    <path
       style="fill:#a5a5a5;stroke-width:0.32000002"
       d="M 34.707838,75.164281 C 18.594298,73.468585 5.3479308,61.330815 2.3776609,45.539839 1.5546506,41.164434 1.8706545,32.812331 3.0023203,29.029855 4.7638053,23.142273 6.9243779,19.079092 10.570017,14.798016 15.748523,8.7168922 22.920422,4.5136821 31.225103,2.69276 c 3.472767,-0.761455 10.87703,-0.761455 14.349798,0 14.221687,3.1183122 24.631127,13.014564 28.404183,27.003856 0.945933,3.507216 1.180023,11.90537 0.441613,15.843223 -2.562224,13.664039 -13.280663,25.174359 -26.585217,28.549335 -2.682381,0.680442 -8.619398,1.502269 -10.029383,1.388307 -0.289353,-0.02339 -1.683568,-0.164326 -3.098259,-0.3132 z"
       id="path898"
       inkscape:connector-curvature="0" />
    <path
       style="fill:#94b6a4;stroke-width:0.32000002"
       d="M 34.707838,75.164281 C 18.594298,73.468585 5.3479308,61.330815 2.3776609,45.539839 1.5546506,41.164434 1.8706545,32.812331 3.0023203,29.029855 4.7638053,23.142273 6.9243779,19.079092 10.570017,14.798016 15.748523,8.7168922 22.920422,4.5136821 31.225103,2.69276 c 3.472767,-0.761455 10.87703,-0.761455 14.349798,0 14.221687,3.1183122 24.631127,13.014564 28.404183,27.003856 0.945933,3.507216 1.180023,11.90537 0.441613,15.843223 -2.562224,13.664039 -13.280663,25.174359 -26.585217,28.549335 -2.682381,0.680442 -8.619398,1.502269 -10.029383,1.388307 -0.289353,-0.02339 -1.683568,-0.164326 -3.098259,-0.3132 z M 45.960715,51.499295 c 4.383501,-0.488791 4.366471,-0.478611 4.431236,-2.648256 l 0.05429,-1.818714 -11.86312,0.08384 -11.863121,0.08384 -0.176234,1.533738 c -0.105251,0.91598 -0.0384,1.648131 0.165968,1.81774 1.262189,1.047527 13.120747,1.631376 19.25098,0.947815 z"
       id="path896"
       inkscape:connector-curvature="0" />
    <path
       style="fill:#939595;stroke-width:0.32000002"
       d="m 34.560001,75.053001 c -0.264,-0.06343 -1.56,-0.29016 -2.88,-0.503843 C 22.867327,73.122547 14.029279,67.473324 8.5103943,59.739302 6.4459407,56.846229 3.9718571,51.50974 2.9695337,47.787909 2.1965073,44.917506 2.1217729,44.118123 2.1217729,38.720002 c 0,-5.360836 0.078054,-6.20937 0.8263762,-8.983608 1.7333282,-6.425931 4.6345427,-11.631915 9.0688069,-16.273207 7.07801,-7.40847 16.045503,-11.2231869 26.383046,-11.2231869 10.329366,0 19.305869,3.8155909 26.369053,11.2085429 4.397642,4.602958 7.367517,9.923263 9.075025,16.257206 0.757302,2.80919 0.83415,3.639641 0.83415,9.014253 0,5.398121 -0.07474,6.197504 -0.84776,9.067907 -1.002323,3.721831 -3.476406,9.05832 -5.540861,11.951393 -5.33585,7.477523 -13.323677,12.741021 -22.306158,14.698416 -2.089417,0.455309 -10.258064,0.895287 -11.42345,0.615283 z M 45.960715,51.499295 c 4.383501,-0.488791 4.366471,-0.478611 4.431236,-2.648256 l 0.05429,-1.818714 -11.86312,0.08384 -11.863121,0.08384 -0.176234,1.533738 c -0.105251,0.91598 -0.0384,1.648131 0.165968,1.81774 1.262189,1.047527 13.120747,1.631376 19.25098,0.947815 z"
       id="path894"
       inkscape:connector-curvature="0" />
    <path
       style="fill:#68a4a2;stroke-width:0.32000002"
       d="m 34.560001,75.053001 c -0.264,-0.06343 -1.56,-0.29016 -2.88,-0.503843 C 22.867327,73.122547 14.029279,67.473324 8.5103943,59.739302 6.4459407,56.846229 3.9718571,51.50974 2.9695337,47.787909 2.1965073,44.917506 2.1217729,44.118123 2.1217729,38.720002 c 0,-5.360836 0.078054,-6.20937 0.8263762,-8.983608 1.7333282,-6.425931 4.6345427,-11.631915 9.0688069,-16.273207 7.07801,-7.40847 16.045503,-11.2231869 26.383046,-11.2231869 10.329366,0 19.305869,3.8155909 26.369053,11.2085429 4.397642,4.602958 7.367517,9.923263 9.075025,16.257206 0.757302,2.80919 0.83415,3.639641 0.83415,9.014253 0,5.398121 -0.07474,6.197504 -0.84776,9.067907 -1.002323,3.721831 -3.476406,9.05832 -5.540861,11.951393 -5.33585,7.477523 -13.323677,12.741021 -22.306158,14.698416 -2.089417,0.455309 -10.258064,0.895287 -11.42345,0.615283 z m 13.120001,-23.23353 c 5.822723,-0.730723 12.271181,-2.181293 12.981917,-2.920256 0.605431,-0.629476 1.472544,-3.852752 1.128899,-4.196397 -0.175859,-0.175859 -0.71703,-0.160189 -1.361356,0.03942 -0.588202,0.182224 -2.14946,0.500211 -3.46946,0.706633 -1.32,0.206426 -3.192,0.519453 -4.16,0.695619 -2.71648,0.494368 -20.336394,0.707444 -25.120001,0.303773 -4.291486,-0.36214 -8.894319,-1.051602 -11.289177,-1.691013 -0.753047,-0.201059 -1.448124,-0.286615 -1.544614,-0.190125 -0.33091,0.330912 0.925337,4.099354 1.46237,4.386765 1.464455,0.783754 7.264598,2.017491 12.811421,2.725098 3.904701,0.498121 15.038654,0.582396 18.560001,0.140483 z"
       id="path892"
       inkscape:connector-curvature="0" />
    <path
       style="fill:#6ea68f;stroke-width:0.32000002"
       d="m 34.560001,75.053001 c -0.264,-0.06343 -1.56,-0.29016 -2.88,-0.503843 C 22.867327,73.122547 14.029279,67.473324 8.5103943,59.739302 6.4459407,56.846229 3.9718571,51.50974 2.9695337,47.787909 2.1965073,44.917506 2.1217729,44.118123 2.1217729,38.720002 c 0,-5.360836 0.078054,-6.20937 0.8263762,-8.983608 1.7333282,-6.425931 4.6345427,-11.631915 9.0688069,-16.273207 7.07801,-7.40847 16.045503,-11.2231869 26.383046,-11.2231869 10.329366,0 19.305869,3.8155909 26.369053,11.2085429 4.397642,4.602958 7.367517,9.923263 9.075025,16.257206 0.757302,2.80919 0.83415,3.639641 0.83415,9.014253 0,5.398121 -0.07474,6.197504 -0.84776,9.067907 -1.002323,3.721831 -3.476406,9.05832 -5.540861,11.951393 -5.33585,7.477523 -13.323677,12.741021 -22.306158,14.698416 -2.089417,0.455309 -10.258064,0.895287 -11.42345,0.615283 z m 13.120001,-23.23353 c 5.822723,-0.730723 12.271181,-2.181293 12.981917,-2.920256 0.605431,-0.629476 1.472544,-3.852752 1.128899,-4.196397 -0.175859,-0.175859 -0.71703,-0.160189 -1.361356,0.03942 -0.588202,0.182224 -2.14946,0.500211 -3.46946,0.706633 -1.32,0.206426 -3.192,0.519453 -4.16,0.695619 -2.71648,0.494368 -20.336394,0.707444 -25.120001,0.303773 -4.291486,-0.36214 -8.894319,-1.051602 -11.289177,-1.691013 -0.753047,-0.201059 -1.448124,-0.286615 -1.544614,-0.190125 -0.33091,0.330912 0.925337,4.099354 1.46237,4.386765 1.464455,0.783754 7.264598,2.017491 12.811421,2.725098 3.904701,0.498121 15.038654,0.582396 18.560001,0.140483 z M 51.866175,10.24 c 1.098233,0 0.64983,-0.5456988 -1.048871,-1.2764608 C 49.046008,8.2015478 47.321128,7.6816089 44.480002,7.0532544 42.455266,6.6054559 33.979182,6.7683388 31.680001,7.2992288 28.2132,8.099727 26.131822,8.8574666 24.990533,9.7345738 c -0.32493,0.2497168 3.132994,0.3903122 12.48,0.5074222 7.11121,0.0891 13.121245,0.125097 13.355642,0.08 0.234393,-0.0451 0.702393,-0.082 1.04,-0.082 z"
       id="path890"
       inkscape:connector-curvature="0" />
    <path
       style="fill:#4fa6a6;stroke-width:0.32000002"
       d="M 36.000001,75.002237 C 26.342532,74.127555 18.297554,70.316275 11.959526,63.613135 -0.1191326,50.838674 -1.3376242,31.239693 9.0706404,17.146499 14.396376,9.9352455 21.335609,5.4150242 30.560001,3.1483141 c 4.123296,-1.0132179 11.556705,-1.0132179 15.680001,0 8.572855,2.106608 15.1953,6.1594258 20.215761,12.3716869 9.084634,11.241218 10.889562,25.970756 4.753302,38.790465 -1.818131,3.798391 -3.534032,6.304829 -6.368589,9.302669 -6.627463,7.009245 -15.099296,10.863242 -25.000474,11.373182 -1.408,0.07251 -3.136001,0.07968 -3.840001,0.0159 z M 49.1443,51.671912 c 4.186041,-0.58448 10.274058,-1.974915 11.203475,-2.558748 0.763539,-0.479633 1.895533,-3.957857 1.437245,-4.416145 -0.168128,-0.168128 -0.727075,-0.151168 -1.355558,0.04114 -1.013044,0.309968 -2.240004,0.533178 -7.46946,1.358852 -3.485226,0.550278 -20.448938,0.768313 -25.440331,0.326985 -3.680341,-0.325408 -8.731887,-1.096637 -11.954763,-1.825161 -0.896718,-0.202701 -0.910362,-0.185319 -0.679522,0.865692 0.640793,2.917508 0.91009,3.302762 2.740799,3.920938 2.111687,0.713056 6.732745,1.696928 10.659455,2.269514 4.221372,0.615555 16.499965,0.625523 20.85866,0.01693 z M 51.866175,10.24 c 1.098233,0 0.64983,-0.5456988 -1.048871,-1.2764608 C 49.046008,8.2015478 47.321128,7.6816089 44.480002,7.0532544 42.455266,6.6054559 33.979182,6.7683388 31.680001,7.2992288 28.2132,8.099727 26.131822,8.8574666 24.990533,9.7345738 c -0.32493,0.2497168 3.132994,0.3903122 12.48,0.5074222 7.11121,0.0891 13.121245,0.125097 13.355642,0.08 0.234393,-0.0451 0.702393,-0.082 1.04,-0.082 z"
       id="path888"
       inkscape:connector-curvature="0" />
    <path
       style="fill:#50a19c;stroke-width:0.32000002"
       d="M 36.000001,75.002237 C 26.342532,74.127555 18.297554,70.316275 11.959526,63.613135 -0.1191326,50.838674 -1.3376242,31.239693 9.0706404,17.146499 14.396376,9.9352455 21.335609,5.4150242 30.560001,3.1483141 c 4.123296,-1.0132179 11.556705,-1.0132179 15.680001,0 8.572855,2.106608 15.1953,6.1594258 20.215761,12.3716869 9.084634,11.241218 10.889562,25.970756 4.753302,38.790465 -1.818131,3.798391 -3.534032,6.304829 -6.368589,9.302669 -6.627463,7.009245 -15.099296,10.863242 -25.000474,11.373182 -1.408,0.07251 -3.136001,0.07968 -3.840001,0.0159 z M 49.1443,51.671912 c 4.186041,-0.58448 10.274058,-1.974915 11.203475,-2.558748 0.763539,-0.479633 1.895533,-3.957857 1.437245,-4.416145 -0.168128,-0.168128 -0.727075,-0.151168 -1.355558,0.04114 -1.013044,0.309968 -2.240004,0.533178 -7.46946,1.358852 -3.485226,0.550278 -20.448938,0.768313 -25.440331,0.326985 -3.680341,-0.325408 -8.731887,-1.096637 -11.954763,-1.825161 -0.896718,-0.202701 -0.910362,-0.185319 -0.679522,0.865692 0.640793,2.917508 0.91009,3.302762 2.740799,3.920938 2.111687,0.713056 6.732745,1.696928 10.659455,2.269514 4.221372,0.615555 16.499965,0.625523 20.85866,0.01693 z M 32.420433,13.046235 c 2.496762,0.06964 5.403568,0.11925 6.459569,0.110241 5.351782,-0.04566 12.956218,-0.02029 14.160141,0.04724 0.748077,0.04196 1.358426,0.0043 1.35633,-0.08371 -0.004,-0.169437 -1.178871,-0.733477 -4.316471,-2.072346 l -1.92,-0.819299 1.28,0.05055 c 2.070861,0.08178 3.04,-0.02007 3.04,-0.3195005 0,-0.5746132 -3.956423,-2.011859 -8,-2.9061521 -2.024736,-0.4477985 -10.50082,-0.2849156 -12.800001,0.2459744 -2.741985,0.6331353 -3.695678,0.9221693 -4.964954,1.50472 -2.296683,1.0540916 -2.359675,1.2580342 -0.448264,1.4512952 l 1.733218,0.175244 -1.506746,0.713867 c -0.82871,0.392628 -1.586361,0.842689 -1.683669,1.000137 -0.09731,0.157448 -0.605622,0.380427 -1.129585,0.495508 -1.886417,0.414327 -1.166051,0.636484 1.490966,0.459807 1.490444,-0.09911 4.752704,-0.123214 7.249466,-0.05357 z"
       id="path886"
       inkscape:connector-curvature="0" />
    <path
       style="fill:#30a8a9;stroke-width:0.32000002"
       d="M 36.000001,75.002237 C 26.342532,74.127555 18.297554,70.316275 11.959526,63.613135 -0.1191326,50.838674 -1.3376242,31.239693 9.0706404,17.146499 14.396376,9.9352455 21.335609,5.4150242 30.560001,3.1483141 c 4.123296,-1.0132179 11.556705,-1.0132179 15.680001,0 8.572855,2.106608 15.1953,6.1594258 20.215761,12.3716869 9.084634,11.241218 10.889562,25.970756 4.753302,38.790465 -1.818131,3.798391 -3.534032,6.304829 -6.368589,9.302669 -6.627463,7.009245 -15.099296,10.863242 -25.000474,11.373182 -1.408,0.07251 -3.136001,0.07968 -3.840001,0.0159 z M 49.1443,51.671912 c 4.186041,-0.58448 10.274058,-1.974915 11.203475,-2.558748 0.763539,-0.479633 1.895533,-3.957857 1.437245,-4.416145 -0.168128,-0.168128 -0.727075,-0.151168 -1.355558,0.04114 -1.013044,0.309968 -2.240004,0.533178 -7.46946,1.358852 -3.485226,0.550278 -20.448938,0.768313 -25.440331,0.326985 -3.680341,-0.325408 -8.731887,-1.096637 -11.954763,-1.825161 -0.896718,-0.202701 -0.910362,-0.185319 -0.679522,0.865692 0.640793,2.917508 0.91009,3.302762 2.740799,3.920938 2.111687,0.713056 6.732745,1.696928 10.659455,2.269514 4.221372,0.615555 16.499965,0.625523 20.85866,0.01693 z M 24.619674,13.1628 c 1.68318,-0.124197 4.500327,-0.193895 6.260327,-0.154885 2.69553,0.05974 10.840737,0.06748 14.880001,0.01412 2.637222,-0.03483 7.83552,0.186737 9.682023,0.412684 2.861529,0.350149 3.15063,0.05009 1.419702,-1.47354 C 54.520261,9.900146 49.912696,7.7996697 45.920002,6.9731203 43.337531,6.4385091 34.660056,6.2861977 32.640001,6.740023 c -4.381167,0.9842727 -5.456458,1.3364816 -8.16,2.6727866 -4.318147,2.1343714 -6.834409,4.7100264 -4.100327,4.1971094 0.64882,-0.12172 2.55682,-0.322923 4.24,-0.447119 z"
       id="path884"
       inkscape:connector-curvature="0" />
    <path
       style="fill:#2f9b8f;stroke-width:0.32000002"
       d="M 36.000001,75.002237 C 26.342532,74.127555 18.297554,70.316275 11.959526,63.613135 -0.1191326,50.838674 -1.3376242,31.239693 9.0706404,17.146499 14.396376,9.9352455 21.335609,5.4150242 30.560001,3.1483141 c 4.123296,-1.0132179 11.556705,-1.0132179 15.680001,0 8.572855,2.106608 15.1953,6.1594258 20.215761,12.3716869 9.084634,11.241218 10.889562,25.970756 4.753302,38.790465 -1.818131,3.798391 -3.534032,6.304829 -6.368589,9.302669 -6.627463,7.009245 -15.099296,10.863242 -25.000474,11.373182 -1.408,0.07251 -3.136001,0.07968 -3.840001,0.0159 z M 49.1443,51.671912 c 4.186041,-0.58448 10.274058,-1.974915 11.203475,-2.558748 0.763539,-0.479633 1.895533,-3.957857 1.437245,-4.416145 -0.168128,-0.168128 -0.727075,-0.151168 -1.355558,0.04114 -1.013044,0.309968 -2.240004,0.533178 -7.46946,1.358852 -3.485226,0.550278 -20.448938,0.768313 -25.440331,0.326985 -3.680341,-0.325408 -8.731887,-1.096637 -11.954763,-1.825161 -0.896718,-0.202701 -0.910362,-0.185319 -0.679522,0.865692 0.640793,2.917508 0.91009,3.302762 2.740799,3.920938 2.111687,0.713056 6.732745,1.696928 10.659455,2.269514 4.221372,0.615555 16.499965,0.625523 20.85866,0.01693 z M 46.880002,15.675733 c 0.889702,-0.275489 2.76095,-0.347469 6.136861,-0.236064 l 4.856861,0.160277 -0.315741,-0.830461 c -0.24703,-0.649743 -0.20481,-0.911574 0.194016,-1.203203 0.443558,-0.324338 0.325744,-0.534715 -0.907235,-1.620028 C 54.519541,9.8995108 49.901701,7.7973936 45.920002,6.9731203 43.337531,6.4385091 34.660056,6.2861977 32.640001,6.740023 c -4.381167,0.9842727 -5.456458,1.3364816 -8.16,2.6727866 -3.734582,1.8459274 -6.496381,4.3471914 -4.8,4.3471914 0.597003,0 0.607583,0.315457 0.03786,1.128798 -0.434691,0.620567 -0.352476,0.63139 4.88,0.642395 2.927177,0.0062 6.04214,0.177348 6.92214,0.380426 2.101322,0.484925 13.602532,0.308298 15.360001,-0.235887 z"
       id="path882"
       inkscape:connector-curvature="0" />
    <path
       style="fill:#539472;stroke-width:0.32000002"
       d="M 36.000001,75.002237 C 26.342532,74.127555 18.297554,70.316275 11.959526,63.613135 -0.1191326,50.838674 -1.3376242,31.239693 9.0706404,17.146499 14.396376,9.9352455 21.335609,5.4150242 30.560001,3.1483141 c 4.123296,-1.0132179 11.556705,-1.0132179 15.680001,0 8.572855,2.106608 15.1953,6.1594258 20.215761,12.3716869 9.084634,11.241218 10.889562,25.970756 4.753302,38.790465 -1.818131,3.798391 -3.534032,6.304829 -6.368589,9.302669 -6.627463,7.009245 -15.099296,10.863242 -25.000474,11.373182 -1.408,0.07251 -3.136001,0.07968 -3.840001,0.0159 z M 49.1443,51.671912 c 4.186041,-0.58448 10.274058,-1.974915 11.203475,-2.558748 0.763539,-0.479633 1.895533,-3.957857 1.437245,-4.416145 -0.168128,-0.168128 -0.727075,-0.151168 -1.355558,0.04114 -1.013044,0.309968 -2.240004,0.533178 -7.46946,1.358852 -3.485226,0.550278 -20.448938,0.768313 -25.440331,0.326985 -3.680341,-0.325408 -8.731887,-1.096637 -11.954763,-1.825161 -0.896718,-0.202701 -0.910362,-0.185319 -0.679522,0.865692 0.640793,2.917508 0.91009,3.302762 2.740799,3.920938 2.111687,0.713056 6.732745,1.696928 10.659455,2.269514 4.221372,0.615555 16.499965,0.625523 20.85866,0.01693 z M 44.960002,15.959445 c 2.432425,-0.49014 8.216326,-0.663315 12.265207,-0.367231 1.993862,0.145807 3.685181,0.168061 3.758483,0.04945 0.232634,-0.376408 -2.291507,-3.17958 -3.907661,-4.339638 -3.020902,-2.1683679 -6.981219,-3.8035075 -11.87753,-4.9040074 -0.924829,-0.2078646 -3.876829,-0.3726931 -6.56,-0.3662851 -4.57962,0.010937 -6.046609,0.1946906 -10.1585,1.2724407 -3.721712,0.9754816 -8.294669,3.5767118 -10.594216,6.0262978 -2.243999,2.390413 -2.397122,2.324627 5.250528,2.255804 4.094311,-0.03684 7.418004,0.08157 8.383688,0.298699 2.013485,0.452714 11.307316,0.504208 13.440001,0.07447 z"
       id="path880"
       inkscape:connector-curvature="0" />
    <path
       style="fill:#00a8ac;stroke-width:0.32000002"
       d="M 33.666693,74.537363 C 11.147982,71.612656 -3.0782451,48.753714 4.1651166,27.133724 8.3084125,14.766813 18.318156,5.9897462 31.520001,3.1475287 32.622926,2.9100805 35.550776,2.734173 38.400002,2.734173 c 5.21711,0 7.070409,0.2694371 11.36,1.6515443 C 60.961839,7.9949533 69.770291,17.111802 73.075558,28.517592 80.357286,53.645317 59.583913,77.903459 33.666693,74.537363 Z M 49.682108,51.675839 c 3.969446,-0.586311 9.747718,-1.972221 10.668765,-2.55889 0.661821,-0.421555 1.97863,-4.174112 1.598224,-4.554518 -0.09907,-0.09908 -1.226151,0.06148 -2.504615,0.3568 -4.676365,1.080195 -9.409062,1.523321 -18.16448,1.700755 -11.019483,0.223318 -17.881029,-0.316999 -25.680001,-2.022189 -1.042052,-0.227837 -1.068518,-0.06477 -0.376088,2.317104 0.372894,1.282707 0.726499,1.845328 1.36,2.163891 1.21443,0.610688 6.179032,1.78033 10.388058,2.447389 4.823567,0.764451 17.961692,0.851031 22.710137,0.149658 z M 44.960002,15.959445 c 2.432425,-0.49014 8.216326,-0.663315 12.265207,-0.367231 1.993862,0.145807 3.685181,0.168061 3.758483,0.04945 0.232634,-0.376408 -2.291507,-3.17958 -3.907661,-4.339638 -3.020902,-2.1683679 -6.981219,-3.8035075 -11.87753,-4.9040074 -0.924829,-0.2078646 -3.876829,-0.3726931 -6.56,-0.3662851 -4.57962,0.010937 -6.046609,0.1946906 -10.1585,1.2724407 -3.721712,0.9754816 -8.294669,3.5767118 -10.594216,6.0262978 -2.243999,2.390413 -2.397122,2.324627 5.250528,2.255804 4.094311,-0.03684 7.418004,0.08157 8.383688,0.298699 2.013485,0.452714 11.307316,0.504208 13.440001,0.07447 z"
       id="path878"
       inkscape:connector-curvature="0" />
    <path
       style="fill:#00a5a9;stroke-width:0.32000002"
       d="M 33.666693,74.537363 C 11.147982,71.612656 -3.0782451,48.753714 4.1651166,27.133724 8.3084125,14.766813 18.318156,5.9897462 31.520001,3.1475287 32.622926,2.9100805 35.550776,2.734173 38.400002,2.734173 c 5.21711,0 7.070409,0.2694371 11.36,1.6515443 C 60.961839,7.9949533 69.770291,17.111802 73.075558,28.517592 80.357286,53.645317 59.583913,77.903459 33.666693,74.537363 Z M 49.682108,51.675839 c 3.969446,-0.586311 9.747718,-1.972221 10.668765,-2.55889 0.661821,-0.421555 1.97863,-4.174112 1.598224,-4.554518 -0.09907,-0.09908 -1.226151,0.06148 -2.504615,0.3568 -4.676365,1.080195 -9.409062,1.523321 -18.16448,1.700755 -11.019483,0.223318 -17.881029,-0.316999 -25.680001,-2.022189 -1.042052,-0.227837 -1.068518,-0.06477 -0.376088,2.317104 0.372894,1.282707 0.726499,1.845328 1.36,2.163891 1.21443,0.610688 6.179032,1.78033 10.388058,2.447389 4.823567,0.764451 17.961692,0.851031 22.710137,0.149658 z M 36.800001,42.757307 c 0,-0.06748 -0.36,-0.191513 -0.8,-0.275625 -0.44,-0.08411 -0.8,-0.0289 -0.8,0.122694 0,0.151594 0.36,0.275626 0.8,0.275626 0.44,0 0.8,-0.05521 0.8,-0.122695 z m 5.120001,-0.141885 c 0,-0.145516 -0.432,-0.201174 -0.96,-0.12368 -0.528,0.07749 -0.96,0.196554 -0.96,0.26458 0,0.06802 0.432,0.12368 0.96,0.12368 0.528,0 0.96,-0.11906 0.96,-0.26458 z M 27.433335,42.366667 c -0.106334,-0.106333 -0.382334,-0.117699 -0.613334,-0.02525 -0.255275,0.102151 -0.179448,0.177978 0.193333,0.193331 0.337334,0.01389 0.526334,-0.06174 0.420001,-0.16807 z m 2.406666,-0.01859 c -0.22,-0.08877 -0.58,-0.08877 -0.8,0 -0.22,0.08877 -0.04,0.161405 0.4,0.161405 0.44,0 0.62,-0.07263 0.4,-0.161405 z m 19.360001,-0.01728 c -0.484,-0.07332 -1.276,-0.07332 -1.76,0 -0.484,0.07332 -0.088,0.133309 0.88,0.133309 0.968,0 1.364,-0.05999 0.88,-0.133309 z M 32.160001,36.160001 c 0.108775,-0.176 -0.03523,-0.32 -0.32,-0.32 -0.284774,0 -0.428774,0.144 -0.32,0.32 0.108774,0.176 0.252774,0.32 0.32,0.32 0.06723,0 0.211226,-0.144 0.32,-0.32 z M 45.673336,35.966667 C 45.567,35.860334 45.291,35.848968 45.060002,35.941419 c -0.255274,0.10215 -0.17945,0.177978 0.193334,0.193331 0.337331,0.01389 0.526333,-0.06173 0.42,-0.16807 z m -3.090682,-3.49393 -0.25854,-2.232736 -0.04206,2.106666 c -0.03608,1.807334 0.149357,2.768589 0.471872,2.44607 0.048,-0.048 -0.02909,-1.091996 -0.171277,-2.32 z m -4.729373,-2.528501 c 1.796695,-0.115024 3.63858,-0.22542 4.093073,-0.245325 0.638761,-0.02797 1.001984,-0.367781 1.6,-1.496846 1.153987,-2.178739 2.174256,-3.247923 3.739638,-3.918924 1.92585,-0.825516 5.434509,-0.819958 7.06369,0.01119 2.596576,1.324676 4.53032,4.270837 4.53032,6.902186 0,0.793918 0.144,1.443487 0.32,1.443487 0.176,0 0.32,-0.133715 0.32,-0.297142 0,-0.559771 1.027136,-1.324678 1.553719,-1.157053 0.454285,0.144611 0.512128,-0.08373 0.422822,-1.669138 -0.05691,-1.010167 -0.380905,-2.422131 -0.72,-3.137699 -0.339097,-0.715567 -0.616541,-1.535069 -0.616541,-1.821114 0,-0.286046 -0.146057,-0.610352 -0.324572,-0.72068 -0.178516,-0.110329 -0.615677,-0.771211 -0.971476,-1.468629 -0.874723,-1.714598 -1.373702,-2.322258 -3.983952,-4.851677 l -2.24,-2.170634 3.68,0.19222 c 2.024,0.105721 3.855389,0.246529 4.069751,0.312907 0.866889,0.268433 0.659766,-0.506971 -0.515239,-1.928888 -2.812726,-3.403789 -7.863235,-5.9932052 -14.676013,-7.5244514 -2.431082,-0.5464118 -10.963821,-0.465 -13.5185,0.1289815 -4.425163,1.0288836 -6.02343,1.5875572 -8.64,3.0201089 -3.161673,1.730991 -6.020003,4.193944 -6.522288,5.620096 -0.205235,0.582728 -0.05247,0.598241 3.789273,0.384791 l 4.00313,-0.222418 -3.195058,3.219729 c -1.757281,1.770851 -3.194657,3.397696 -3.194168,3.61521 4.88e-4,0.217514 -0.27218,0.97148 -0.605931,1.67548 -1.566922,3.305202 -1.954958,4.436269 -1.954958,5.698405 0,1.218679 0.100566,1.399243 0.96,1.723643 0.528,0.199298 0.96,0.590868 0.96,0.870157 0,0.279286 0.144,0.507795 0.32,0.507795 0.176,0 0.32,-0.706392 0.32,-1.569759 0,-2.598183 1.88355,-5.405946 4.547252,-6.778482 1.809049,-0.932155 5.253052,-0.845351 7.283543,0.183576 2.76054,1.398872 4.455551,4.344494 4.552789,7.911916 l 0.06358,2.332749 0.109696,-2.283315 0.109696,-2.283315 z m -8.774097,3.446197 C 28.048761,32.14794 25.46301,31.654775 24.06021,32.433192 c -0.651903,0.36174 -0.511086,0.393968 1.1853,0.271264 1.591079,-0.115092 2.080328,-0.02349 2.819792,0.528009 1.078332,0.804215 1.619788,0.888573 1.013882,0.157968 z m 20.040818,-0.430432 c 0.108774,-0.176 0.84577,-0.32 1.63777,-0.32 0.878515,0 1.362886,-0.124774 1.24223,-0.32 -0.295914,-0.4788 -1.984438,-0.385852 -3.055891,0.168218 -0.519261,0.268518 -0.944109,0.556518 -0.944109,0.64 0,0.289046 0.923082,0.150403 1.12,-0.168218 z m 4.32,0 c 0,-0.176 -0.152499,-0.32 -0.338886,-0.32 -0.186388,0 -0.249888,0.144 -0.141114,0.32 0.108774,0.176 0.261274,0.32 0.338886,0.32 0.07761,0 0.141114,-0.144 0.141114,-0.32 z"
       id="path876"
       inkscape:connector-curvature="0" />
    <path
       style="fill:#02a09c;stroke-width:0.32000002"
       d="M 33.666693,74.537363 C 11.147982,71.612656 -3.0782451,48.753714 4.1651166,27.133724 8.3084125,14.766813 18.318156,5.9897462 31.520001,3.1475287 32.622926,2.9100805 35.550776,2.734173 38.400002,2.734173 c 5.21711,0 7.070409,0.2694371 11.36,1.6515443 C 60.961839,7.9949533 69.770291,17.111802 73.075558,28.517592 80.357286,53.645317 59.583913,77.903459 33.666693,74.537363 Z M 49.682108,51.675839 c 3.969446,-0.586311 9.747718,-1.972221 10.668765,-2.55889 0.661821,-0.421555 1.97863,-4.174112 1.598224,-4.554518 -0.09907,-0.09908 -1.226151,0.06148 -2.504615,0.3568 -4.676365,1.080195 -9.409062,1.523321 -18.16448,1.700755 -11.019483,0.223318 -17.881029,-0.316999 -25.680001,-2.022189 -1.042052,-0.227837 -1.068518,-0.06477 -0.376088,2.317104 0.372894,1.282707 0.726499,1.845328 1.36,2.163891 1.21443,0.610688 6.179032,1.78033 10.388058,2.447389 4.823567,0.764451 17.961692,0.851031 22.710137,0.149658 z m -1.486724,-8.654385 c 5.308151,-0.595411 10.05161,-1.462723 13.004618,-2.377817 l 2.16,-0.669351 0.0543,-3.747142 c 0.0764,-5.272027 -0.01581,-6.329847 -0.772969,-8.867143 -0.763008,-2.556882 -2.886346,-7.336999 -3.400173,-7.654561 -0.189219,-0.116944 -0.57872,-0.707185 -0.865555,-1.311646 -0.329117,-0.693562 -1.129159,-1.464461 -2.168564,-2.089574 -1.070252,-0.643664 -1.366886,-0.933124 -0.847043,-0.826561 1.133117,0.232278 5.411082,0.337928 5.610452,0.138557 0.09146,-0.09145 -0.397271,-0.848258 -1.086058,-1.681784 -2.823005,-3.416226 -7.863943,-6.0031008 -14.685895,-7.5364094 -2.431082,-0.5464118 -10.963821,-0.465 -13.5185,0.1289815 -4.425163,1.0288836 -6.02343,1.5875572 -8.64,3.0201089 -3.154846,1.727254 -6.020407,4.194136 -6.519286,5.612272 -0.198108,0.563149 -0.03763,0.591103 2.654543,0.462388 1.575969,-0.07535 2.793752,-0.02107 2.706185,0.120616 -0.08757,0.141686 -0.340795,0.257612 -0.562728,0.257612 -0.221933,0 -0.989879,0.501906 -1.706547,1.115346 -0.929833,0.795903 -1.817864,2.147746 -3.100587,4.72 -2.453447,4.91992 -2.800741,6.405512 -2.987778,12.780562 l -0.156549,5.335907 2.196373,0.682288 c 8.01426,2.489574 22.362208,3.539274 32.631757,2.38735 z M 19.263412,35.160833 c -2.079202,-0.769145 -1.602346,-5.781582 0.819162,-8.61057 1.603569,-1.873409 3.318339,-2.659487 5.837427,-2.675969 1.539523,-0.01007 2.424455,0.167923 3.405617,0.685012 2.852566,1.503346 4.815785,5.023936 4.519724,8.105095 -0.186246,1.938311 -0.666787,2.5356 -2.039983,2.5356 -0.897757,0 -1.214173,-0.208374 -1.907633,-1.256262 -2.028347,-3.06504 -5.950853,-2.976222 -8.123221,0.183933 -0.780434,1.135302 -1.469066,1.418633 -2.511093,1.033161 z m 36.89659,0.0337 c -0.352,-0.133222 -0.974675,-0.6991 -1.383725,-1.257507 -0.98864,-1.349626 -2.531897,-2.254355 -3.847913,-2.255825 -1.365936,-0.0015 -3.074081,0.805153 -3.687581,1.741473 -0.853325,1.302339 -1.50976,1.777331 -2.456263,1.777331 -1.444458,0 -2.027824,-1.155459 -1.829674,-3.623988 0.367418,-4.57726 3.611565,-7.729943 7.925156,-7.701719 4.294925,0.0281 7.431786,3.10967 7.86032,7.72177 0.252116,2.713403 -0.851667,4.252715 -2.58032,3.598465 z"
       id="path874"
       inkscape:connector-curvature="0" />
    <path
       style="fill:#009b96;stroke-width:0.32000002"
       d="M 33.666693,74.537363 C 11.147982,71.612656 -3.0782451,48.753714 4.1651166,27.133724 8.3084125,14.766813 18.318156,5.9897462 31.520001,3.1475287 32.622926,2.9100805 35.550776,2.734173 38.400002,2.734173 c 5.21711,0 7.070409,0.2694371 11.36,1.6515443 C 60.961839,7.9949533 69.770291,17.111802 73.075558,28.517592 80.357286,53.645317 59.583913,77.903459 33.666693,74.537363 Z M 49.682108,51.675839 c 3.969446,-0.586311 9.747718,-1.972221 10.668765,-2.55889 0.661821,-0.421555 1.97863,-4.174112 1.598224,-4.554518 -0.09907,-0.09908 -1.226151,0.06148 -2.504615,0.3568 -4.676365,1.080195 -9.409062,1.523321 -18.16448,1.700755 -11.019483,0.223318 -17.881029,-0.316999 -25.680001,-2.022189 -1.042052,-0.227837 -1.068518,-0.06477 -0.376088,2.317104 0.372894,1.282707 0.726499,1.845328 1.36,2.163891 1.21443,0.610688 6.179032,1.78033 10.388058,2.447389 4.823567,0.764451 17.961692,0.851031 22.710137,0.149658 z M 43.200002,43.523218 C 50.986828,43.095646 56.31317,42.235762 64.240003,40.126523 64.60623,40.029073 64.818879,34.877877 64.66134,29.920001 64.57222,27.115152 62.969314,21.951806 61.115074,18.496603 60.350518,17.071923 60.287161,16.266086 60.960002,16.52428 62.638982,17.168565 59.62526,13.132442 57.04317,11.278668 54.056297,9.1342845 50.076572,7.4944224 45.198501,6.3980226 c -2.431082,-0.5464118 -10.963821,-0.465 -13.5185,0.1289815 -4.425163,1.0288836 -6.02343,1.5875572 -8.64,3.0201089 -4.275648,2.340884 -7.366596,5.559761 -6.862858,7.146899 0.133118,0.419416 -0.0997,1.218523 -0.649098,2.227954 -0.971601,1.785153 -2.489174,6.294316 -3.001391,8.918035 -0.367434,1.882098 -0.305818,11.687501 0.07584,12.069162 0.310802,0.3108 2.552064,0.91257 6.757507,1.814359 4.817341,1.033001 8.193705,1.484396 13.28,1.77543 2.376,0.135952 4.464,0.266218 4.64,0.289472 0.176,0.02326 2.840001,-0.09609 5.920001,-0.265206 z M 18.769597,34.614805 c -0.632297,-0.698679 -0.719635,-3.561748 -0.158842,-5.207052 1.593232,-4.674369 6.709233,-6.819259 10.867326,-4.556141 2.729757,1.48572 4.12192,3.93388 4.12192,7.248514 0,1.570583 -0.134809,2.162682 -0.585197,2.570279 -0.956035,0.8652 -1.647188,0.623449 -3.383279,-1.183399 -2.613933,-2.720467 -4.809115,-2.720467 -7.423048,0 -1.739893,1.810803 -2.57339,2.084154 -3.43888,1.127799 z m 24.933262,0.08234 c -0.723353,-0.723354 -0.666061,-4.388295 0.09469,-6.057143 1.403907,-3.079729 3.788604,-4.64 7.091712,-4.64 2.155392,0 3.741366,0.643914 5.240893,2.12783 2.920845,2.890442 3.37328,9.07217 0.663981,9.07217 -0.327511,0 -1.25217,-0.705708 -2.054804,-1.568243 -2.605872,-2.800353 -5.173504,-2.816163 -7.772851,-0.04786 -1.579031,1.681667 -2.411306,1.965562 -3.263623,1.113245 z"
       id="path872"
       inkscape:connector-curvature="0" />
    <path
       style="fill:#586a65;stroke-width:0.32000002"
       d="M 33.666693,74.537363 C 11.147982,71.612656 -3.0782451,48.753714 4.1651166,27.133724 8.3084125,14.766813 18.318156,5.9897462 31.520001,3.1475287 32.622926,2.9100805 35.550776,2.734173 38.400002,2.734173 c 5.21711,0 7.070409,0.2694371 11.36,1.6515443 C 60.961839,7.9949533 69.770291,17.111802 73.075558,28.517592 80.357286,53.645317 59.583913,77.903459 33.666693,74.537363 Z M 49.682108,51.675839 c 3.969446,-0.586311 9.747718,-1.972221 10.668765,-2.55889 0.661821,-0.421555 1.97863,-4.174112 1.598224,-4.554518 -0.09907,-0.09908 -1.226151,0.06148 -2.504615,0.3568 -4.676365,1.080195 -9.409062,1.523321 -18.16448,1.700755 -11.019483,0.223318 -17.881029,-0.316999 -25.680001,-2.022189 -1.042052,-0.227837 -1.068518,-0.06477 -0.376088,2.317104 0.372894,1.282707 0.726499,1.845328 1.36,2.163891 1.21443,0.610688 6.179032,1.78033 10.388058,2.447389 4.823567,0.764451 17.961692,0.851031 22.710137,0.149658 z m -2.703412,-8.181885 c 5.481677,-0.611655 9.421047,-1.2568 12.821623,-2.099776 2.218058,-0.54984 3.726957,-0.758055 4.545232,-0.627207 1.183207,0.1892 1.231412,0.160407 1.41561,-0.845549 0.10488,-0.57278 0.129434,-4.209421 0.05456,-8.081421 -0.118464,-6.126541 -0.229517,-7.350846 -0.855901,-9.435683 -0.928675,-3.090987 -2.118665,-5.169641 -4.510809,-7.879422 -3.695249,-4.185912 -8.05635,-6.5099066 -15.250513,-8.1268734 -2.431082,-0.5464118 -10.963821,-0.465 -13.5185,0.1289815 -5.383768,1.2517664 -7.78419,2.2430318 -11.396668,4.7063069 -2.084085,1.421095 -5.368175,5.186166 -6.647967,7.621615 -2.013744,3.832161 -2.400101,6.054652 -2.504116,14.404749 -0.05019,4.028896 -0.01201,7.404896 0.08484,7.502215 0.09685,0.09732 0.594941,0.06493 1.106875,-0.07198 0.647783,-0.173245 1.969486,0.01693 4.346982,0.625475 3.117863,0.798048 6.931521,1.437962 12.930058,2.169603 3.297456,0.402192 13.805994,0.407613 17.378695,0.009 z M 18.683693,34.069499 c -1.061414,-1.619923 0.167335,-6.189279 2.164633,-8.049636 0.413421,-0.385076 1.399675,-0.993914 2.191675,-1.352972 4.91531,-2.22839 10.56,1.818657 10.56,7.571152 0,3.128982 -1.477347,3.53729 -3.848939,1.063766 -2.533895,-2.642803 -5.128226,-2.642803 -7.662122,0 -1.703746,1.776973 -2.610062,1.981296 -3.405247,0.76769 z m 24.847566,0.191539 c -0.613043,-1.145485 -0.384003,-3.789174 0.487972,-5.632377 1.93646,-4.093342 6.179654,-5.70277 10.00689,-3.795578 1.9123,0.95294 3.034832,2.268604 3.91744,4.591444 0.745449,1.96186 0.790883,3.784018 0.118297,4.744271 -0.78088,1.114861 -1.72071,0.873306 -3.382989,-0.869494 -2.525827,-2.648178 -5.197309,-2.645585 -7.658198,0.0074 -1.60409,1.729321 -2.886877,2.080147 -3.489412,0.954301 z"
       id="path870"
       inkscape:connector-curvature="0" />
    <path
       style="fill:#009486;stroke-width:0.32000002"
       d="M 33.666693,74.537363 C 11.147982,71.612656 -3.0782451,48.753714 4.1651166,27.133724 8.3084125,14.766813 18.318156,5.9897462 31.520001,3.1475287 32.622926,2.9100805 35.550776,2.734173 38.400002,2.734173 c 5.21711,0 7.070409,0.2694371 11.36,1.6515443 11.201837,3.609236 20.010289,12.7260847 23.315556,24.1318747 7.281728,25.127725 -13.491645,49.385867 -39.408865,46.019771 z m 12.19824,-22.071124 c 6.125354,-0.524874 13.880263,-2.178039 15.146426,-3.228861 0.564819,-0.468755 1.738682,-4.306752 1.50416,-4.917907 -0.231488,-0.603245 -0.171517,-0.606167 -3.426678,0.166931 -10.630071,2.524637 -30.699554,2.509443 -41.52229,-0.03142 -1.851437,-0.434666 -3.018257,-0.571261 -3.213344,-0.376173 -0.346909,0.346909 0.188182,2.899123 0.908856,4.334954 0.529862,1.055667 1.138905,1.315174 5.377938,2.291491 8.199783,1.888541 16.7613,2.486237 25.224932,1.760998 z m 1.113763,-8.972285 c 5.481677,-0.611655 9.421047,-1.2568 12.821623,-2.099776 2.218058,-0.54984 3.726957,-0.758055 4.545232,-0.627207 1.183207,0.1892 1.231412,0.160407 1.41561,-0.845549 0.10488,-0.57278 0.129434,-4.209421 0.05456,-8.081421 -0.118464,-6.126541 -0.229517,-7.350846 -0.855901,-9.435683 -0.928675,-3.090987 -2.118665,-5.169641 -4.510809,-7.879422 -3.695249,-4.185912 -8.05635,-6.5099066 -15.250513,-8.1268734 -2.431082,-0.5464118 -10.963821,-0.465 -13.5185,0.1289815 -5.383768,1.2517664 -7.78419,2.2430318 -11.396668,4.7063069 -2.084085,1.421095 -5.368175,5.186166 -6.647967,7.621615 -2.013744,3.832161 -2.400101,6.054652 -2.504116,14.404749 -0.05019,4.028896 -0.01201,7.404896 0.08484,7.502215 0.09685,0.09732 0.594941,0.06493 1.106875,-0.07198 0.647783,-0.173245 1.969486,0.01693 4.346982,0.625475 3.117863,0.798048 6.931521,1.437962 12.930058,2.169603 3.297456,0.402192 13.805994,0.407613 17.378695,0.009 z M 18.683693,34.069499 c -1.061414,-1.619923 0.167335,-6.189279 2.164633,-8.049636 0.413421,-0.385076 1.399675,-0.993914 2.191675,-1.352972 4.91531,-2.22839 10.56,1.818657 10.56,7.571152 0,3.128982 -1.477347,3.53729 -3.848939,1.063766 -2.533895,-2.642803 -5.128226,-2.642803 -7.662122,0 -1.703746,1.776973 -2.610062,1.981296 -3.405247,0.76769 z m 24.847566,0.191539 c -0.613043,-1.145485 -0.384003,-3.789174 0.487972,-5.632377 1.93646,-4.093342 6.179654,-5.70277 10.00689,-3.795578 1.9123,0.95294 3.034832,2.268604 3.91744,4.591444 0.745449,1.96186 0.790883,3.784018 0.118297,4.744271 -0.78088,1.114861 -1.72071,0.873306 -3.382989,-0.869494 -2.525827,-2.648178 -5.197309,-2.645585 -7.658198,0.0074 -1.60409,1.729321 -2.886877,2.080147 -3.489412,0.954301 z"
       id="path868"
       inkscape:connector-curvature="0" />
    <path
       style="fill:#008b75;stroke-width:0.32000002"
       d="M 33.666693,74.537363 C 11.147982,71.612656 -3.0782451,48.753714 4.1651166,27.133724 8.3084125,14.766813 18.318156,5.9897462 31.520001,3.1475287 32.622926,2.9100805 35.550776,2.734173 38.400002,2.734173 c 5.21711,0 7.070409,0.2694371 11.36,1.6515443 C 60.961839,7.9949533 69.770291,17.111802 73.075558,28.517592 80.357286,53.645317 59.583913,77.903459 33.666693,74.537363 Z M 55.040002,61.655842 C 62.236258,56.775493 67.189164,47.641077 67.736652,38.240001 67.966745,34.289038 66.886665,25.644987 65.724339,22.135095 63.371449,15.030056 56.949109,9.5431809 47.840002,6.8557542 43.746405,5.6480351 36.144859,5.4008005 31.680001,6.3301622 22.173752,8.3088906 14.916873,13.693812 11.818437,21.068311 10.720871,23.680597 9.264696,31.609803 9.1498272,35.599502 8.9572733,42.28739 10.793887,48.769765 14.375634,54.044121 c 2.46157,3.624822 6.649385,7.419725 10.274669,9.310665 1.221056,0.636903 0.687254,0.214064 -1.959042,-1.551811 -5.938043,-3.962461 -10.192224,-10.384234 -11.175246,-16.869264 -0.318243,-2.099463 -0.297856,-2.513761 0.157931,-3.20938 0.28784,-0.439299 0.729717,-0.877917 0.981949,-0.974707 0.252231,-0.09679 1.935841,0.19344 3.741354,0.64496 7.042694,1.761219 13.149068,2.439059 22.004714,2.442637 8.906599,0.0036 16.302266,-0.843226 22.646139,-2.59305 2.571683,-0.709344 3.365014,-0.607923 4.107398,0.525098 0.419203,0.639782 0.444695,1.107181 0.160349,2.93985 -1.073213,6.917014 -5.360352,13.337021 -11.553015,17.300666 -2.939722,1.881587 -3.135021,2.041197 -1.602832,1.309917 0.792,-0.378004 2.088,-1.12674 2.88,-1.66386 z M 19.062858,34.377144 c -0.7375,-0.737498 -0.648428,-3.784507 0.163035,-5.577143 1.351161,-2.984909 3.585157,-4.48 6.694108,-4.48 2.32494,0 3.917646,0.715024 5.430329,2.437875 1.426078,1.624214 1.994811,3.119569 2.015339,5.29889 0.02637,2.797466 -1.247482,3.721085 -2.727784,1.977831 -2.141088,-2.521418 -3.78841,-3.271295 -5.917884,-2.693879 -1.180597,0.320124 -2.100101,1.02425 -3.517884,2.693879 -0.820703,0.966489 -1.419446,1.062361 -2.139259,0.342547 z m 24.860449,0.102857 c -1.056134,-1.340877 -0.625929,-4.751062 0.887629,-7.036118 2.489389,-3.758292 8.157684,-4.258699 11.250202,-0.993189 2.547139,2.689623 3.025277,8.429307 0.702195,8.429307 -0.259027,0 -1.113366,-0.697395 -1.898534,-1.549763 -2.888179,-3.135383 -5.630605,-2.913422 -8.702682,0.704359 -0.768595,0.905126 -1.726592,1.095718 -2.23881,0.445404 z m 1.941626,17.986238 c 6.125354,-0.524874 13.880263,-2.178039 15.146426,-3.228861 0.564819,-0.468755 1.738682,-4.306752 1.50416,-4.917907 -0.231488,-0.603245 -0.171517,-0.606167 -3.426678,0.166931 -10.630071,2.524637 -30.699554,2.509443 -41.52229,-0.03142 -1.851437,-0.434666 -3.018257,-0.571261 -3.213344,-0.376173 -0.346909,0.346909 0.188182,2.899123 0.908856,4.334954 0.529862,1.055667 1.138905,1.315174 5.377938,2.291491 8.199783,1.888541 16.7613,2.486237 25.224932,1.760998 z"
       id="path866"
       inkscape:connector-curvature="0" />
    <path
       style="fill:#267651;stroke-width:0.32000002"
       d="M 33.666693,74.537363 C 11.147982,71.612656 -3.0782451,48.753714 4.1651166,27.133724 8.3084125,14.766813 18.318156,5.9897462 31.520001,3.1475287 32.622926,2.9100805 35.550776,2.734173 38.400002,2.734173 c 5.21711,0 7.070409,0.2694371 11.36,1.6515443 11.201837,3.609236 20.010289,12.7260847 23.315556,24.1318747 7.281728,25.127725 -13.491645,49.385867 -39.408865,46.019771 z m 11.613309,-7.78064 C 51.75973,65.321868 55.751849,63.25182 60.108073,59.067868 64.038665,55.292716 66.487887,51.468456 68.118652,46.560002 70.869158,38.281243 70.169811,30.130127 65.918755,20.919477 62.476041,13.460243 55.822175,8.370143 46.400002,5.9879516 42.450408,4.9893829 34.636696,4.9995388 30.621768,6.0084594 23.536831,7.7888496 17.698343,11.410331 13.849295,16.412042 12.079252,18.712155 9.1987248,24.709334 8.3469523,27.867772 4.7537768,41.191541 9.7313885,54.961874 20.822405,62.380534 c 1.538221,1.028899 3.631125,2.182899 4.650898,2.564445 1.836823,0.687244 7.077165,2.07759 8.926698,2.368393 1.824077,0.286803 8.647565,-0.0623 10.880001,-0.556649 z M 32.366705,65.733161 C 26.378823,64.385343 19.512906,59.932489 16.183802,55.237826 12.936657,50.658738 10.793907,44.184517 11.723644,41.761659 c 0.395874,-1.031629 1.482941,-1.096883 4.62188,-0.27744 12.628686,3.296813 32.313352,3.27544 44.324594,-0.04813 2.784758,-0.770557 2.868166,-0.775142 3.649885,-0.200694 1.014777,0.745712 1.127446,1.842473 0.49894,4.856806 -0.913734,4.382298 -3.913011,9.584788 -7.285011,12.636452 -3.138007,2.839898 -8.196935,5.675434 -12.09393,6.778663 -2.457191,0.695625 -10.378301,0.832464 -13.073297,0.225843 z M 45.864933,52.466239 c 6.125354,-0.524874 13.880263,-2.178039 15.146426,-3.228861 0.564819,-0.468755 1.738682,-4.306752 1.50416,-4.917907 -0.231488,-0.603245 -0.171517,-0.606167 -3.426678,0.166931 -10.630071,2.524637 -30.699554,2.509443 -41.52229,-0.03142 -1.851437,-0.434666 -3.018257,-0.571261 -3.213344,-0.376173 -0.346909,0.346909 0.188182,2.899123 0.908856,4.334954 0.529862,1.055667 1.138905,1.315174 5.377938,2.291491 8.199783,1.888541 16.7613,2.486237 25.224932,1.760998 z M 19.045314,34.245873 c -0.472388,-0.521984 -0.544025,-1.006045 -0.405071,-2.737112 0.32437,-4.040967 3.017921,-6.890064 6.737839,-7.12693 3.264681,-0.207879 5.761881,1.275894 7.144521,4.245093 1.258781,2.703218 0.914685,6.253077 -0.606128,6.253077 -0.196796,0 -1.01451,-0.705824 -1.817143,-1.568499 -2.747304,-2.952821 -5.611358,-2.952821 -8.358662,0 -0.802633,0.862675 -1.608315,1.568499 -1.790405,1.568499 -0.18209,0 -0.589318,-0.285356 -0.904951,-0.634128 z m 24.977545,0.131271 c -1.321651,-1.321652 -0.161795,-6.232673 1.936669,-8.200168 2.897799,-2.71694 7.839338,-2.414375 10.351933,0.633837 1.832317,2.222918 2.58017,6.420279 1.343344,7.539592 -0.865497,0.783264 -1.175596,0.671596 -2.448371,-0.881658 -1.175699,-1.434787 -3.020915,-2.428746 -4.5088,-2.428746 -1.223942,0 -2.710288,0.86351 -4.182935,2.430128 -1.454316,1.547117 -1.745683,1.653172 -2.49184,0.907015 z"
       id="path864"
       inkscape:connector-curvature="0" />
    <path
       style="fill:#008567;stroke-width:0.32000002"
       d="M 33.600001,74.211436 C 26.005118,73.235014 18.701412,69.607958 13.081553,64.021871 -0.61244204,50.410178 -0.95328234,28.146759 12.317392,14.107512 25.883748,-0.24454138 48.731196,-0.91496125 62.983913,12.620788 70.750012,19.996221 74.700793,29.928493 74.129174,40.640002 73.013801,61.540825 54.476914,76.89544 33.600001,74.211436 Z M 45.280002,66.756723 C 51.75973,65.321868 55.751849,63.25182 60.108073,59.067868 64.038665,55.292716 66.487887,51.468456 68.118652,46.560002 70.869158,38.281243 70.169811,30.130127 65.918755,20.919477 62.476041,13.460243 55.822175,8.370143 46.400002,5.9879516 42.450408,4.9893829 34.636696,4.9995388 30.621768,6.0084594 23.536831,7.7888496 17.698343,11.410331 13.849295,16.412042 12.079252,18.712155 9.1987248,24.709334 8.3469523,27.867772 4.7537768,41.191541 9.7313885,54.961874 20.822405,62.380534 c 1.538221,1.028899 3.631125,2.182899 4.650898,2.564445 1.836823,0.687244 7.077165,2.07759 8.926698,2.368393 1.824077,0.286803 8.647565,-0.0623 10.880001,-0.556649 z M 32.366705,65.733161 C 26.378823,64.385343 19.512906,59.932489 16.183802,55.237826 12.936657,50.658738 10.793907,44.184517 11.723644,41.761659 c 0.395874,-1.031629 1.482941,-1.096883 4.62188,-0.27744 12.628686,3.296813 32.313352,3.27544 44.324594,-0.04813 2.784758,-0.770557 2.868166,-0.775142 3.649885,-0.200694 1.014777,0.745712 1.127446,1.842473 0.49894,4.856806 -0.913734,4.382298 -3.913011,9.584788 -7.285011,12.636452 -3.138007,2.839898 -8.196935,5.675434 -12.09393,6.778663 -2.457191,0.695625 -10.378301,0.832464 -13.073297,0.225843 z M 50.720002,52.000744 c 3.802202,-0.594323 8.042787,-1.569475 9.533277,-2.19224 0.943687,-0.394297 1.159101,-0.723337 1.797203,-2.745174 0.732944,-2.322339 0.718071,-3.223328 -0.05321,-3.223328 -0.232544,0 -1.209066,0.204768 -2.170042,0.455043 -10.637888,2.770486 -31.45747,2.75919 -42.963913,-0.02333 -1.555957,-0.376262 -2.275041,-0.428006 -2.521599,-0.18145 -0.456861,0.456861 0.577555,4.341277 1.339769,5.031073 1.122402,1.015756 8.591468,2.657536 15.19851,3.34079 4.058999,0.41975 15.975812,0.142614 19.840001,-0.461398 z M 19.045314,34.245873 c -0.472388,-0.521984 -0.544025,-1.006045 -0.405071,-2.737112 0.32437,-4.040967 3.017921,-6.890064 6.737839,-7.12693 3.264681,-0.207879 5.761881,1.275894 7.144521,4.245093 1.258781,2.703218 0.914685,6.253077 -0.606128,6.253077 -0.196796,0 -1.01451,-0.705824 -1.817143,-1.568499 -2.747304,-2.952821 -5.611358,-2.952821 -8.358662,0 -0.802633,0.862675 -1.608315,1.568499 -1.790405,1.568499 -0.18209,0 -0.589318,-0.285356 -0.904951,-0.634128 z m 9.244283,-7.028669 c 0.159278,-0.0095 0.02896,-0.305203 -0.289596,-0.657203 -0.423436,-0.467892 -0.985589,-0.64 -2.090414,-0.64 -1.446142,0 -2.497993,0.586232 -2.12796,1.185982 0.124637,0.202013 2.141732,0.251779 4.50797,0.111221 z m 15.733262,7.15994 c -1.321651,-1.321652 -0.161795,-6.232673 1.936669,-8.200168 2.897799,-2.71694 7.839338,-2.414375 10.351933,0.633837 1.832317,2.222918 2.58017,6.420279 1.343344,7.539592 -0.865497,0.783264 -1.175596,0.671596 -2.448371,-0.881658 -1.175699,-1.434787 -3.020915,-2.428746 -4.5088,-2.428746 -1.223942,0 -2.710288,0.86351 -4.182935,2.430128 -1.454316,1.547117 -1.745683,1.653172 -2.49184,0.907015 z m 9.01034,-7.303674 c 0.493817,-0.493816 -0.746903,-1.153469 -2.169523,-1.153469 -1.442138,0 -2.761031,0.668769 -2.417425,1.225798 0.156016,0.25292 4.327479,0.187142 4.586948,-0.07233 z"
       id="path862"
       inkscape:connector-curvature="0" />
    <path
       style="fill:#00736d;stroke-width:0.32000002"
       d="M 33.600001,74.211436 C 26.005118,73.235014 18.701412,69.607958 13.081553,64.021871 -0.61244204,50.410178 -0.95328234,28.146759 12.317392,14.107512 25.883748,-0.24454138 48.731196,-0.91496125 62.983913,12.620788 70.750012,19.996221 74.700793,29.928493 74.129174,40.640002 73.013801,61.540825 54.476914,76.89544 33.600001,74.211436 Z m 8.000001,-5.101129 C 52.770501,67.939593 62.070924,61.800111 67.277244,52.160002 74.107062,39.513797 72.084572,24.712056 62.101958,14.28432 53.209365,4.9952114 38.60059,1.8070675 26.604587,6.5375571 6.7132851,14.381469 -0.46491717,37.44084 11.456347,55.200002 16.479234,62.68262 25.63574,68.116991 34.87555,69.09926 c 3.412042,0.362727 3.36952,0.36266 6.724452,0.01104 z m -9.03601,-3.37433 C 27.075099,64.642966 20.2416,60.451762 16.783987,56.057593 13.335636,51.675196 10.736816,44.333291 11.723644,41.761659 c 0.395874,-1.031629 1.482941,-1.096883 4.62188,-0.27744 12.628686,3.296813 32.313352,3.27544 44.324594,-0.04813 2.784758,-0.770557 2.868166,-0.775142 3.649885,-0.200694 1.013766,0.744969 1.126697,1.837059 0.503408,4.868064 -0.586932,2.854211 -2.792074,7.426967 -4.806685,9.967527 -3.541521,4.466099 -10.428926,8.629923 -16.055518,9.706471 -2.937856,0.562102 -8.467184,0.54198 -11.397216,-0.04148 z m 18.15601,-13.735233 c 3.802202,-0.594323 8.042787,-1.569475 9.533277,-2.19224 0.943687,-0.394297 1.159101,-0.723337 1.797203,-2.745174 0.732944,-2.322339 0.718071,-3.223328 -0.05321,-3.223328 -0.232544,0 -1.209066,0.204768 -2.170042,0.455043 -10.637888,2.770486 -31.45747,2.75919 -42.963913,-0.02333 -1.555957,-0.376262 -2.275041,-0.428006 -2.521599,-0.18145 -0.456861,0.456861 0.577555,4.341277 1.339769,5.031073 1.122402,1.015756 8.591468,2.657536 15.19851,3.34079 4.058999,0.41975 15.975812,0.142614 19.840001,-0.461398 z M 19.045314,34.245873 c -0.472388,-0.521984 -0.544025,-1.006045 -0.405071,-2.737112 0.32437,-4.040967 3.017921,-6.890064 6.737839,-7.12693 3.264681,-0.207879 5.761881,1.275894 7.144521,4.245093 1.258781,2.703218 0.914685,6.253077 -0.606128,6.253077 -0.196796,0 -1.01451,-0.705824 -1.817143,-1.568499 -2.747304,-2.952821 -5.611358,-2.952821 -8.358662,0 -0.802633,0.862675 -1.608315,1.568499 -1.790405,1.568499 -0.18209,0 -0.589318,-0.285356 -0.904951,-0.634128 z m 9.244283,-7.028669 c 0.159278,-0.0095 0.02896,-0.305203 -0.289596,-0.657203 -0.423436,-0.467892 -0.985589,-0.64 -2.090414,-0.64 -1.446142,0 -2.497993,0.586232 -2.12796,1.185982 0.124637,0.202013 2.141732,0.251779 4.50797,0.111221 z m 15.733262,7.15994 c -1.321651,-1.321652 -0.161795,-6.232673 1.936669,-8.200168 2.897799,-2.71694 7.839338,-2.414375 10.351933,0.633837 1.832317,2.222918 2.58017,6.420279 1.343344,7.539592 -0.865497,0.783264 -1.175596,0.671596 -2.448371,-0.881658 -1.175699,-1.434787 -3.020915,-2.428746 -4.5088,-2.428746 -1.223942,0 -2.710288,0.86351 -4.182935,2.430128 -1.454316,1.547117 -1.745683,1.653172 -2.49184,0.907015 z m 9.01034,-7.303674 c 0.493817,-0.493816 -0.746903,-1.153469 -2.169523,-1.153469 -1.442138,0 -2.761031,0.668769 -2.417425,1.225798 0.156016,0.25292 4.327479,0.187142 4.586948,-0.07233 z"
       id="path860"
       inkscape:connector-curvature="0" />
    <path
       style="fill:#00805c;stroke-width:0.32000002"
       d="M 33.600001,74.211436 C 26.005118,73.235014 18.701412,69.607958 13.081553,64.021871 -0.61244204,50.410178 -0.95328234,28.146759 12.317392,14.107512 25.883748,-0.24454138 48.731196,-0.91496125 62.983913,12.620788 70.750012,19.996221 74.700793,29.928493 74.129174,40.640002 73.013801,61.540825 54.476914,76.89544 33.600001,74.211436 Z m 8.000001,-5.101129 C 52.770501,67.939593 62.070924,61.800111 67.277244,52.160002 74.107062,39.513797 72.084572,24.712056 62.101958,14.28432 53.209365,4.9952114 38.60059,1.8070675 26.604587,6.5375571 6.7132851,14.381469 -0.46491717,37.44084 11.456347,55.200002 16.479234,62.68262 25.63574,68.116991 34.87555,69.09926 c 3.412042,0.362727 3.36952,0.36266 6.724452,0.01104 z M 32.888721,65.416835 C 31.705518,65.181174 29.617518,64.541071 28.248722,63.994386 20.242706,60.796841 14.416171,54.450357 12.458195,46.794741 c -0.796104,-3.112736 -0.796923,-4.613802 -0.0029,-5.332375 0.586626,-0.530889 0.799042,-0.512316 4.56,0.398685 7.019004,1.700189 12.58865,2.298951 21.384719,2.298951 8.796067,0 14.365715,-0.598762 21.384714,-2.298951 3.760957,-0.911001 3.973373,-0.929574 4.56,-0.398685 0.794013,0.718573 0.793197,2.219639 -0.0029,5.332375 -2.00681,7.84656 -7.702195,13.967847 -16.126948,17.332916 -4.357401,1.740461 -10.476163,2.255149 -15.326138,1.289178 z M 50.720002,52.000744 c 3.802202,-0.594323 8.042787,-1.569475 9.533277,-2.19224 0.943687,-0.394297 1.159101,-0.723337 1.797203,-2.745174 0.732944,-2.322339 0.718071,-3.223328 -0.05321,-3.223328 -0.232544,0 -1.209066,0.204768 -2.170042,0.455043 -10.637888,2.770486 -31.45747,2.75919 -42.963913,-0.02333 -1.555957,-0.376262 -2.275041,-0.428006 -2.521599,-0.18145 -0.456861,0.456861 0.577555,4.341277 1.339769,5.031073 1.122402,1.015756 8.591468,2.657536 15.19851,3.34079 4.058999,0.41975 15.975812,0.142614 19.840001,-0.461398 z M 19.264001,34.176001 c -1.143066,-1.143065 0.07195,-6.162299 1.898016,-7.840727 2.888988,-2.655407 7.970554,-2.136601 10.380116,1.059765 1.220662,1.619253 1.95456,4.647932 1.447388,5.973164 -0.575558,1.503936 -1.210227,1.42953 -2.850949,-0.33424 -2.782362,-2.991031 -5.536614,-3.006936 -8.373275,-0.04836 -1.597507,1.666169 -1.887506,1.804182 -2.501296,1.190393 z m 9.025596,-6.958797 c 0.159278,-0.0095 0.02896,-0.305203 -0.289596,-0.657203 -0.423436,-0.467892 -0.985589,-0.64 -2.090414,-0.64 -1.446142,0 -2.497993,0.586232 -2.12796,1.185982 0.124637,0.202013 2.141732,0.251779 4.50797,0.111221 z m 15.939067,7.072004 c -1.302685,-0.826551 -0.499309,-5.137048 1.362906,-7.312626 2.216553,-2.589545 6.429654,-3.134989 9.196215,-1.190577 1.991046,1.399361 3.186742,3.865496 3.065862,6.323382 -0.06827,1.388051 -0.244054,1.998512 -0.648643,2.25255 -0.462672,0.290509 -0.81776,0.073 -2.134496,-1.307526 -2.849306,-2.987323 -5.62952,-3.00822 -8.369837,-0.06291 -1.497636,1.609671 -1.761789,1.748339 -2.472007,1.297706 z m 8.804535,-7.215738 c 0.493817,-0.493816 -0.746903,-1.153469 -2.169523,-1.153469 -1.442138,0 -2.761031,0.668769 -2.417425,1.225798 0.156016,0.25292 4.327479,0.187142 4.586948,-0.07233 z"
       id="path858"
       inkscape:connector-curvature="0" />
    <path
       style="fill:#007c55;stroke-width:0.32000002"
       d="M 33.600001,74.211436 C 26.005118,73.235014 18.701412,69.607958 13.081553,64.021871 -0.61244204,50.410178 -0.95328234,28.146759 12.317392,14.107512 25.883748,-0.24454138 48.731196,-0.91496125 62.983913,12.620788 70.750012,19.996221 74.700793,29.928493 74.129174,40.640002 73.013801,61.540825 54.476914,76.89544 33.600001,74.211436 Z m 11.360001,-4.301865 c 6.125565,-1.240256 10.290752,-3.260023 15.860896,-7.691201 2.493146,-1.983353 5.746449,-6.186745 7.7537,-10.01808 C 72.80606,44.123519 73.398467,34.502065 70.189273,25.976015 67.700553,19.364096 62.836943,13.347737 56.79894,9.4119677 53.569426,7.3068636 50.484392,5.9597839 46.416184,4.8783381 42.166773,3.7487227 35.151918,3.6830677 30.941768,4.7335061 17.729709,8.029935 7.6268755,18.387694 5.2827288,31.040001 4.4789487,35.378328 4.3962997,38.020168 4.9523634,41.600002 5.5992329,45.764427 6.4021622,48.380322 8.045424,51.677 c 1.906169,3.824116 3.320325,5.786049 6.365598,8.831322 8.174163,8.174161 19.458333,11.646791 30.54898,9.401249 z M 32.888721,65.416835 C 31.705518,65.181174 29.617518,64.541071 28.248722,63.994386 20.242706,60.796841 14.416171,54.450357 12.458195,46.794741 c -0.796104,-3.112736 -0.796923,-4.613802 -0.0029,-5.332375 0.586626,-0.530889 0.799042,-0.512316 4.56,0.398685 7.019004,1.700189 12.58865,2.298951 21.384719,2.298951 8.796067,0 14.365715,-0.598762 21.384714,-2.298951 3.760957,-0.911001 3.973373,-0.929574 4.56,-0.398685 0.794013,0.718573 0.793197,2.219639 -0.0029,5.332375 -2.00681,7.84656 -7.702195,13.967847 -16.126948,17.332916 -4.357401,1.740461 -10.476163,2.255149 -15.326138,1.289178 z M 50.720002,52.000744 c 3.802202,-0.594323 8.042787,-1.569475 9.533277,-2.19224 0.943687,-0.394297 1.159101,-0.723337 1.797203,-2.745174 0.732944,-2.322339 0.718071,-3.223328 -0.05321,-3.223328 -0.232544,0 -1.209066,0.204768 -2.170042,0.455043 -10.637888,2.770486 -31.45747,2.75919 -42.963913,-0.02333 -1.555957,-0.376262 -2.275041,-0.428006 -2.521599,-0.18145 -0.456861,0.456861 0.577555,4.341277 1.339769,5.031073 1.122402,1.015756 8.591468,2.657536 15.19851,3.34079 4.058999,0.41975 15.975812,0.142614 19.840001,-0.461398 z M 19.264001,34.176001 c -1.143066,-1.143065 0.07195,-6.162299 1.898016,-7.840727 2.888988,-2.655407 7.970554,-2.136601 10.380116,1.059765 1.220662,1.619253 1.95456,4.647932 1.447388,5.973164 -0.575558,1.503936 -1.210227,1.42953 -2.850949,-0.33424 -2.782362,-2.991031 -5.536614,-3.006936 -8.373275,-0.04836 -1.597507,1.666169 -1.887506,1.804182 -2.501296,1.190393 z m 9.025596,-6.958797 c 0.159278,-0.0095 0.02896,-0.305203 -0.289596,-0.657203 -0.423436,-0.467892 -0.985589,-0.64 -2.090414,-0.64 -1.446142,0 -2.497993,0.586232 -2.12796,1.185982 0.124637,0.202013 2.141732,0.251779 4.50797,0.111221 z m 15.939067,7.072004 c -1.302685,-0.826551 -0.499309,-5.137048 1.362906,-7.312626 2.216553,-2.589545 6.429654,-3.134989 9.196215,-1.190577 1.991046,1.399361 3.186742,3.865496 3.065862,6.323382 -0.06827,1.388051 -0.244054,1.998512 -0.648643,2.25255 -0.462672,0.290509 -0.81776,0.073 -2.134496,-1.307526 -2.849306,-2.987323 -5.62952,-3.00822 -8.369837,-0.06291 -1.497636,1.609671 -1.761789,1.748339 -2.472007,1.297706 z m 8.804535,-7.215738 c 0.493817,-0.493816 -0.746903,-1.153469 -2.169523,-1.153469 -1.442138,0 -2.761031,0.668769 -2.417425,1.225798 0.156016,0.25292 4.327479,0.187142 4.586948,-0.07233 z"
       id="path856"
       inkscape:connector-curvature="0" />
    <path
       style="fill:#406a22;stroke-width:0.32000002"
       d="M 33.600001,74.211436 C 26.005118,73.235014 18.701412,69.607958 13.081553,64.021871 -0.61244204,50.410178 -0.95328234,28.146759 12.317392,14.107512 25.883748,-0.24454138 48.731196,-0.91496125 62.983913,12.620788 70.750012,19.996221 74.700793,29.928493 74.129174,40.640002 73.013801,61.540825 54.476914,76.89544 33.600001,74.211436 Z m 9.347565,-2.686019 C 52.528744,70.269433 60.414034,65.627091 66.307439,57.772649 75.04704,46.124939 75.094992,30.244208 66.427644,17.962706 63.600588,13.956808 59.120882,9.9894193 54.661365,7.5420653 51.412024,5.7588466 46.17205,4.1624539 41.956152,3.6713384 34.318344,2.7815999 26.427341,4.6945211 19.731738,9.0589357 3.1445818,19.87099 -1.0870643,42.191186 10.494728,57.78037 c 5.335053,7.181025 13.809591,12.368545 22.145273,13.555786 1.32,0.188007 2.76,0.394672 3.2,0.459261 1.744653,0.256093 3.644986,0.183904 7.107565,-0.27 z M 32.491764,65.270841 C 28.953903,64.525673 24.019537,62.190217 21.120001,59.88854 16.908119,56.545116 13.72322,51.740946 12.469914,46.840565 c -0.807533,-3.157427 -0.811611,-4.656938 -0.01463,-5.378199 0.586626,-0.530889 0.799042,-0.512316 4.56,0.398685 7.019,1.700189 12.588646,2.298951 21.384715,2.298951 8.796067,0 14.365715,-0.598762 21.384714,-2.298951 3.760957,-0.911001 3.973373,-0.929574 4.56,-0.398685 0.796983,0.721261 0.792906,2.220772 -0.01462,5.378199 C 60.997945,59.869138 46.550939,68.232089 32.491768,65.270841 Z M 50.720002,52.000744 c 3.802202,-0.594323 8.042787,-1.569475 9.533277,-2.19224 0.943687,-0.394297 1.159101,-0.723337 1.797203,-2.745174 0.732944,-2.322339 0.718071,-3.223328 -0.05321,-3.223328 -0.232544,0 -1.209066,0.204768 -2.170042,0.455043 -10.637888,2.770486 -31.45747,2.75919 -42.963913,-0.02333 -1.555957,-0.376262 -2.275041,-0.428006 -2.521599,-0.18145 -0.456861,0.456861 0.577555,4.341277 1.339769,5.031073 1.122402,1.015756 8.591468,2.657536 15.19851,3.34079 4.058999,0.41975 15.975812,0.142614 19.840001,-0.461398 z M 19.264001,34.176001 c -1.143066,-1.143065 0.07195,-6.162299 1.898016,-7.840727 2.888988,-2.655407 7.970554,-2.136601 10.380116,1.059765 1.220662,1.619253 1.95456,4.647932 1.447388,5.973164 -0.575558,1.503936 -1.210227,1.42953 -2.850949,-0.33424 -2.782362,-2.991031 -5.536614,-3.006936 -8.373275,-0.04836 -1.597507,1.666169 -1.887506,1.804182 -2.501296,1.190393 z m 9.025596,-6.958797 c 0.159278,-0.0095 0.02896,-0.305203 -0.289596,-0.657203 -0.423436,-0.467892 -0.985589,-0.64 -2.090414,-0.64 -1.446142,0 -2.497993,0.586232 -2.12796,1.185982 0.124637,0.202013 2.141732,0.251779 4.50797,0.111221 z m 15.939067,7.072004 c -1.302685,-0.826551 -0.499309,-5.137048 1.362906,-7.312626 2.216553,-2.589545 6.429654,-3.134989 9.196215,-1.190577 1.991046,1.399361 3.186742,3.865496 3.065862,6.323382 -0.06827,1.388051 -0.244054,1.998512 -0.648643,2.25255 -0.462672,0.290509 -0.81776,0.073 -2.134496,-1.307526 -2.849306,-2.987323 -5.62952,-3.00822 -8.369837,-0.06291 -1.497636,1.609671 -1.761789,1.748339 -2.472007,1.297706 z m 8.804535,-7.215738 c 0.493817,-0.493816 -0.746903,-1.153469 -2.169523,-1.153469 -1.442138,0 -2.761031,0.668769 -2.417425,1.225798 0.156016,0.25292 4.327479,0.187142 4.586948,-0.07233 z"
       id="path854"
       inkscape:connector-curvature="0" />
    <path
       style="fill:#017448;stroke-width:0.32000002"
       d="M 33.600001,74.211436 C 26.005118,73.235014 18.701412,69.607958 13.081553,64.021871 -0.61244204,50.410178 -0.95328234,28.146759 12.317392,14.107512 25.883748,-0.24454138 48.731196,-0.91496125 62.983913,12.620788 70.750012,19.996221 74.700793,29.928493 74.129174,40.640002 73.013801,61.540825 54.476914,76.89544 33.600001,74.211436 Z m 9.347565,-2.686019 C 52.528744,70.269433 60.414034,65.627091 66.307439,57.772649 75.04704,46.124939 75.094992,30.244208 66.427644,17.962706 63.600588,13.956808 59.120882,9.9894193 54.661365,7.5420653 51.412024,5.7588466 46.17205,4.1624539 41.956152,3.6713384 34.318344,2.7815999 26.427341,4.6945211 19.731738,9.0589357 3.1445818,19.87099 -1.0870643,42.191186 10.494728,57.78037 c 5.335053,7.181025 13.809591,12.368545 22.145273,13.555786 1.32,0.188007 2.76,0.394672 3.2,0.459261 1.744653,0.256093 3.644986,0.183904 7.107565,-0.27 z M 32.491764,65.270841 C 28.953903,64.525673 24.019537,62.190217 21.120001,59.88854 16.908119,56.545116 13.72322,51.740946 12.469914,46.840565 c -0.807533,-3.157427 -0.811611,-4.656938 -0.01463,-5.378199 0.586626,-0.530889 0.799042,-0.512316 4.56,0.398685 7.019,1.700189 12.588646,2.298951 21.384715,2.298951 8.796067,0 14.365715,-0.598762 21.384714,-2.298951 3.760957,-0.911001 3.973373,-0.929574 4.56,-0.398685 0.796983,0.721261 0.792906,2.220772 -0.01462,5.378199 C 60.997946,59.869138 46.55094,68.232089 32.491769,65.270841 Z m 12.332119,-4.8056 c 0.32552,-0.201181 0.01632,-0.468896 -1.149276,-0.99512 -1.356394,-0.612352 -2.144346,-0.719895 -5.274605,-0.719895 -3.13026,0 -3.918212,0.107543 -5.274606,0.719895 -1.165607,0.526224 -1.474797,0.793939 -1.149278,0.99512 0.24493,0.151376 3.135675,0.275225 6.423884,0.275225 3.288208,0 6.178953,-0.123849 6.423881,-0.275225 z m 3.496119,-8.122794 c 6.304266,-0.760899 11.810324,-2.072768 12.78329,-3.045735 0.307594,-0.307593 0.820144,-1.523033 1.138998,-2.700976 0.796762,-2.943485 0.654564,-3.038537 -3.273209,-2.187965 -2.941972,0.637095 -4.69472,0.885498 -11.79075,1.671021 -3.744809,0.414544 -13.826765,0.41344 -17.556658,-0.0019 -7.41365,-0.82559 -9.159049,-1.070669 -11.634064,-1.6336 -1.458816,-0.331798 -2.867335,-0.60327 -3.130044,-0.60327 -0.818224,0 -0.867096,0.870467 -0.17652,3.144038 0.605563,1.993687 0.775721,2.23969 1.872524,2.707178 2.066434,0.880774 7.563697,2.007392 13.366432,2.739338 3.588832,0.452688 14.346151,0.401177 18.400001,-0.08811 z M 19.264001,34.176001 c -1.143066,-1.143065 0.07195,-6.162299 1.898016,-7.840727 2.888988,-2.655407 7.970554,-2.136601 10.380116,1.059765 1.220662,1.619253 1.95456,4.647932 1.447388,5.973164 -0.575558,1.503936 -1.210227,1.42953 -2.850949,-0.33424 -2.782362,-2.991031 -5.536614,-3.006936 -8.373275,-0.04836 -1.597507,1.666169 -1.887506,1.804182 -2.501296,1.190393 z m 9.025596,-6.958797 c 0.159278,-0.0095 0.02896,-0.305203 -0.289596,-0.657203 -0.423436,-0.467892 -0.985589,-0.64 -2.090414,-0.64 -1.446142,0 -2.497993,0.586232 -2.12796,1.185982 0.124637,0.202013 2.141732,0.251779 4.50797,0.111221 z m 15.939067,7.072004 c -1.302685,-0.826551 -0.499309,-5.137048 1.362906,-7.312626 2.216553,-2.589545 6.429654,-3.134989 9.196215,-1.190577 1.991046,1.399361 3.186742,3.865496 3.065862,6.323382 -0.06827,1.388051 -0.244054,1.998512 -0.648643,2.25255 -0.462672,0.290509 -0.81776,0.073 -2.134496,-1.307526 -2.849306,-2.987323 -5.62952,-3.00822 -8.369837,-0.06291 -1.497636,1.609671 -1.761789,1.748339 -2.472007,1.297706 z m 8.804535,-7.215738 c 0.493817,-0.493816 -0.746903,-1.153469 -2.169523,-1.153469 -1.442138,0 -2.761031,0.668769 -2.417425,1.225798 0.156016,0.25292 4.327479,0.187142 4.586948,-0.07233 z"
       id="path852"
       inkscape:connector-curvature="0" />
    <path
       style="fill:#036c3a;stroke-width:0.32000002"
       d="M 33.600001,74.211436 C 19.251148,72.3667 7.2448236,61.624697 3.6425877,47.408671 2.7660421,43.949432 2.2838931,37.063262 2.787773,35.200001 c 0.244363,-0.903612 0.3416722,-0.223539 0.5036633,3.520001 0.1104307,2.552 0.4281536,5.576 0.7060512,6.72 2.1437489,8.825018 7.0501345,16.233098 14.0012225,21.140244 12.451362,8.790083 27.901148,8.889047 40.423327,0.258928 2.406836,-1.658759 6.394343,-5.523101 8.303662,-8.047181 4.244224,-5.610775 6.85551,-13.40994 6.881136,-20.551992 0.0099,-2.743836 0.09117,-3.384688 0.368829,-2.906339 0.519142,0.894375 0.09604,8.055191 -0.678445,11.482461 -0.834243,3.691703 -2.476157,7.663431 -4.56729,11.048113 -2.157053,3.491379 -6.887245,8.311331 -10.496746,10.695933 -7.186829,4.747949 -15.975802,6.764288 -24.633182,5.651267 z m -0.99575,-8.917821 c -4.339755,-0.915516 -9.69305,-3.686009 -13.133003,-6.796723 -3.171621,-2.868061 -5.93173,-7.474215 -7.013698,-11.704669 -0.795475,-3.110282 -0.796112,-4.611431 -0.0023,-5.329857 0.586627,-0.530889 0.799042,-0.512316 4.56,0.398685 7.019009,1.700189 12.588655,2.298951 21.384724,2.298951 8.796067,0 14.365715,-0.598762 21.384714,-2.298951 3.760957,-0.911001 3.973373,-0.929574 4.56,-0.398685 0.79385,0.718426 0.793213,2.219575 -0.0022,5.329857 -3.330662,13.022759 -17.780257,21.445972 -31.738203,18.501392 z m 12.219632,-4.828374 c 0.32552,-0.201181 0.01632,-0.468896 -1.149276,-0.99512 -1.356394,-0.612352 -2.144346,-0.719895 -5.274605,-0.719895 -3.13026,0 -3.918212,0.107543 -5.274606,0.719895 -1.165607,0.526224 -1.474797,0.793939 -1.149278,0.99512 0.24493,0.151376 3.135675,0.275225 6.423884,0.275225 3.288208,0 6.178953,-0.123849 6.423881,-0.275225 z m 3.496119,-8.122794 c 6.304266,-0.760899 11.810324,-2.072768 12.78329,-3.045735 0.307594,-0.307593 0.820144,-1.523033 1.138998,-2.700976 0.796762,-2.943485 0.654564,-3.038537 -3.273209,-2.187965 -2.941972,0.637095 -4.69472,0.885498 -11.79075,1.671021 -3.744809,0.414544 -13.826765,0.41344 -17.556658,-0.0019 -7.41365,-0.82559 -9.159049,-1.070669 -11.634064,-1.6336 -1.458816,-0.331798 -2.867335,-0.60327 -3.130044,-0.60327 -0.818224,0 -0.867096,0.870467 -0.17652,3.144038 0.605563,1.993687 0.775721,2.23969 1.872524,2.707178 2.066434,0.880774 7.563697,2.007392 13.366432,2.739338 3.588832,0.452688 14.346151,0.401177 18.400001,-0.08811 z M 19.264001,34.176001 c -1.143066,-1.143065 0.07195,-6.162299 1.898016,-7.840727 2.888988,-2.655407 7.970554,-2.136601 10.380116,1.059765 1.220662,1.619253 1.95456,4.647932 1.447388,5.973164 -0.575558,1.503936 -1.210227,1.42953 -2.850949,-0.33424 -2.782362,-2.991031 -5.536614,-3.006936 -8.373275,-0.04836 -1.597507,1.666169 -1.887506,1.804182 -2.501296,1.190393 z m 9.025596,-6.958797 c 0.159278,-0.0095 0.02896,-0.305203 -0.289596,-0.657203 -0.423436,-0.467892 -0.985589,-0.64 -2.090414,-0.64 -1.446142,0 -2.497993,0.586232 -2.12796,1.185982 0.124637,0.202013 2.141732,0.251779 4.50797,0.111221 z m 15.939067,7.072004 c -1.302685,-0.826551 -0.499309,-5.137048 1.362906,-7.312626 2.216553,-2.589545 6.429654,-3.134989 9.196215,-1.190577 1.991046,1.399361 3.186742,3.865496 3.065862,6.323382 -0.06827,1.388051 -0.244054,1.998512 -0.648643,2.25255 -0.462672,0.290509 -0.81776,0.073 -2.134496,-1.307526 -2.849306,-2.987323 -5.62952,-3.00822 -8.369837,-0.06291 -1.497636,1.609671 -1.761789,1.748339 -2.472007,1.297706 z m 8.804535,-7.215738 c 0.493817,-0.493816 -0.746903,-1.153469 -2.169523,-1.153469 -1.442138,0 -2.761031,0.668769 -2.417425,1.225798 0.156016,0.25292 4.327479,0.187142 4.586948,-0.07233 z M 3.2381441,33.181704 c -0.061957,-1.459103 1.7364379,-8.153788 2.0942385,-7.795987 0.080629,0.08063 -0.1759453,1.205827 -0.5701651,2.500441 -0.3942196,1.294614 -0.8898257,3.217843 -1.1013463,4.273843 -0.2297453,1.146986 -0.3999402,1.558336 -0.4227271,1.021703 z m 70.0930719,0.378297 c -0.02816,-0.286 -0.1328,-1.006 -0.232516,-1.6 -0.148416,-0.884103 -0.115811,-0.977173 0.17976,-0.513103 0.198586,0.311793 0.303216,1.031794 0.232516,1.599999 -0.0707,0.568208 -0.151594,0.799104 -0.17976,0.513104 z M 72.06144,27.947796 c -0.406208,-1.329536 -0.66698,-2.48892 -0.579488,-2.576409 0.205673,-0.205675 1.570934,4.27554 1.427072,4.684113 -0.05996,0.170298 -0.441373,-0.778169 -0.847584,-2.107704 z"
       id="path850"
       inkscape:connector-curvature="0" />
    <path
       style="fill:#36650d;stroke-width:0.32000002"
       d="m 32.604251,65.293615 c -4.339755,-0.915516 -9.69305,-3.686009 -13.133003,-6.796723 -3.171621,-2.868061 -5.93173,-7.474215 -7.013698,-11.704669 -0.795475,-3.110282 -0.796112,-4.611431 -0.0023,-5.329857 0.586627,-0.530889 0.799042,-0.512316 4.56,0.398685 7.019009,1.700189 12.588655,2.298951 21.384724,2.298951 8.796067,0 14.365715,-0.598762 21.384714,-2.298951 3.760957,-0.911001 3.973373,-0.929574 4.56,-0.398685 0.79385,0.718426 0.793213,2.219575 -0.0022,5.329857 -3.330662,13.022759 -17.780257,21.445972 -31.738203,18.501392 z m 12.219632,-4.828374 c 0.32552,-0.201181 0.01632,-0.468896 -1.149276,-0.99512 -1.356394,-0.612352 -2.144346,-0.719895 -5.274605,-0.719895 -3.13026,0 -3.918212,0.107543 -5.274606,0.719895 -1.165607,0.526224 -1.474797,0.793939 -1.149278,0.99512 0.24493,0.151376 3.135675,0.275225 6.423884,0.275225 3.288208,0 6.178953,-0.123849 6.423881,-0.275225 z m 3.496119,-8.122794 c 6.304266,-0.760899 11.810324,-2.072768 12.78329,-3.045735 0.307594,-0.307593 0.820144,-1.523033 1.138998,-2.700976 0.796762,-2.943485 0.654564,-3.038537 -3.273209,-2.187965 -2.941972,0.637095 -4.69472,0.885498 -11.79075,1.671021 -3.744809,0.414544 -13.826765,0.41344 -17.556658,-0.0019 -7.41365,-0.82559 -9.159049,-1.070669 -11.634064,-1.6336 -1.458816,-0.331798 -2.867335,-0.60327 -3.130044,-0.60327 -0.818224,0 -0.867096,0.870467 -0.17652,3.144038 0.605563,1.993687 0.775721,2.23969 1.872524,2.707178 2.066434,0.880774 7.563697,2.007392 13.366432,2.739338 3.588832,0.452688 14.346151,0.401177 18.400001,-0.08811 z M 19.264001,34.176001 c -1.143066,-1.143065 0.07195,-6.162299 1.898016,-7.840727 2.888988,-2.655407 7.970554,-2.136601 10.380116,1.059765 1.220662,1.619253 1.95456,4.647932 1.447388,5.973164 -0.575558,1.503936 -1.210227,1.42953 -2.850949,-0.33424 -2.782362,-2.991031 -5.536614,-3.006936 -8.373275,-0.04836 -1.597507,1.666169 -1.887506,1.804182 -2.501296,1.190393 z m 9.025596,-6.958797 c 0.159278,-0.0095 0.02896,-0.305203 -0.289596,-0.657203 -0.423436,-0.467892 -0.985589,-0.64 -2.090414,-0.64 -1.446142,0 -2.497993,0.586232 -2.12796,1.185982 0.124637,0.202013 2.141732,0.251779 4.50797,0.111221 z m 15.939067,7.072004 c -1.302685,-0.826551 -0.499309,-5.137048 1.362906,-7.312626 2.216553,-2.589545 6.429654,-3.134989 9.196215,-1.190577 1.991046,1.399361 3.186742,3.865496 3.065862,6.323382 -0.06827,1.388051 -0.244054,1.998512 -0.648643,2.25255 -0.462672,0.290509 -0.81776,0.073 -2.134496,-1.307526 -2.849306,-2.987323 -5.62952,-3.00822 -8.369837,-0.06291 -1.497636,1.609671 -1.761789,1.748339 -2.472007,1.297706 z m 8.804535,-7.215738 c 0.493817,-0.493816 -0.746903,-1.153469 -2.169523,-1.153469 -1.442138,0 -2.761031,0.668769 -2.417425,1.225798 0.156016,0.25292 4.327479,0.187142 4.586948,-0.07233 z"
       id="path848"
       inkscape:connector-curvature="0" />
    <path
       style="fill:#04534b;stroke-width:0.32000002"
       d="m 32.604251,65.293615 c -4.339755,-0.915516 -9.69305,-3.686009 -13.133003,-6.796723 -3.171621,-2.868061 -5.93173,-7.474215 -7.013698,-11.704669 -0.795475,-3.110282 -0.796112,-4.611431 -0.0023,-5.329857 0.586627,-0.530889 0.799042,-0.512316 4.56,0.398685 7.019009,1.700189 12.588655,2.298951 21.384724,2.298951 8.796067,0 14.365715,-0.598762 21.384714,-2.298951 3.760957,-0.911001 3.973373,-0.929574 4.56,-0.398685 0.79385,0.718426 0.793213,2.219575 -0.0022,5.329857 C 61.011814,59.814982 46.562219,68.238195 32.604273,65.293615 Z M 43.486693,62.88631 c 1.47768,-0.260052 2.95368,-0.557559 3.28,-0.661127 0.924579,-0.293449 0.699187,-1.308051 -0.446691,-2.010777 -3.8544,-2.36377 -11.985601,-2.36377 -15.840001,0 -1.300522,0.797564 -1.375346,1.768499 -0.16,2.076204 4.31976,1.0937 9.106353,1.31026 13.166692,0.5957 z m 4.833309,-10.543863 c 6.304266,-0.760899 11.810324,-2.072768 12.78329,-3.045735 0.307594,-0.307593 0.820144,-1.523033 1.138998,-2.700976 0.796762,-2.943485 0.654564,-3.038537 -3.273209,-2.187965 -2.941972,0.637095 -4.69472,0.885498 -11.79075,1.671021 -3.744809,0.414544 -13.826765,0.41344 -17.556658,-0.0019 -7.41365,-0.82559 -9.159049,-1.070669 -11.634064,-1.6336 -1.458816,-0.331798 -2.867335,-0.60327 -3.130044,-0.60327 -0.818224,0 -0.867096,0.870467 -0.17652,3.144038 0.605563,1.993687 0.775721,2.23969 1.872524,2.707178 2.066434,0.880774 7.563697,2.007392 13.366432,2.739338 3.588832,0.452688 14.346151,0.401177 18.400001,-0.08811 z M 19.264001,34.176001 c -1.143066,-1.143065 0.07195,-6.162299 1.898016,-7.840727 2.888988,-2.655407 7.970554,-2.136601 10.380116,1.059765 1.220662,1.619253 1.95456,4.647932 1.447388,5.973164 -0.575558,1.503936 -1.210227,1.42953 -2.850949,-0.33424 -2.782362,-2.991031 -5.536614,-3.006936 -8.373275,-0.04836 -1.597507,1.666169 -1.887506,1.804182 -2.501296,1.190393 z m 9.025596,-6.958797 c 0.159278,-0.0095 0.02896,-0.305203 -0.289596,-0.657203 -0.423436,-0.467892 -0.985589,-0.64 -2.090414,-0.64 -1.446142,0 -2.497993,0.586232 -2.12796,1.185982 0.124637,0.202013 2.141732,0.251779 4.50797,0.111221 z m 15.939067,7.072004 c -1.302685,-0.826551 -0.499309,-5.137048 1.362906,-7.312626 2.216553,-2.589545 6.429654,-3.134989 9.196215,-1.190577 1.991046,1.399361 3.186742,3.865496 3.065862,6.323382 -0.06827,1.388051 -0.244054,1.998512 -0.648643,2.25255 -0.462672,0.290509 -0.81776,0.073 -2.134496,-1.307526 -2.849306,-2.987323 -5.62952,-3.00822 -8.369837,-0.06291 -1.497636,1.609671 -1.761789,1.748339 -2.472007,1.297706 z m 8.804535,-7.215738 c 0.493817,-0.493816 -0.746903,-1.153469 -2.169523,-1.153469 -1.442138,0 -2.761031,0.668769 -2.417425,1.225798 0.156016,0.25292 4.327479,0.187142 4.586948,-0.07233 z"
       id="path846"
       inkscape:connector-curvature="0" />
    <path
       style="fill:#044538;stroke-width:0.32000002"
       d="M 33.399851,65.272076 C 28.671052,64.420566 22.788987,61.376214 19.311816,57.980604 15.071547,53.839797 12.16,47.917378 12.16,43.432994 c 0,-2.305325 0.379175,-2.422871 4.584905,-1.421348 13.906949,3.311706 29.526537,3.3141 43.310262,0.0067 2.982016,-0.715548 3.658922,-0.788364 4.08,-0.438899 0.654112,0.542864 0.658,2.697152 0.0094,5.200228 -2.205865,8.512714 -9.354314,15.365197 -18.864551,18.083511 -1.940506,0.554656 -9.605677,0.818512 -11.880151,0.408947 z M 43.486693,62.88631 c 1.47768,-0.260052 2.95368,-0.557559 3.28,-0.661127 0.924579,-0.293449 0.699187,-1.308051 -0.446691,-2.010777 -3.8544,-2.36377 -11.985601,-2.36377 -15.840001,0 -1.300522,0.797564 -1.375346,1.768499 -0.16,2.076204 4.31976,1.0937 9.106353,1.31026 13.166692,0.5957 z m 4.993309,-10.550612 c 6.246675,-0.74625 11.625469,-2.041165 12.62329,-3.038986 0.789818,-0.789817 1.827056,-4.734365 1.366128,-5.195293 -0.256806,-0.256806 -1.248742,-0.1719 -3.651011,0.312512 -4.489463,0.905296 -4.842125,0.955706 -10.498407,1.500663 -9.979095,0.961443 -22.670046,0.301952 -30.979858,-1.609885 -1.110922,-0.255587 -2.231441,-0.464707 -2.490044,-0.464707 -0.810645,0 -0.857778,0.876566 -0.169055,3.144038 0.603442,1.986701 0.779564,2.242711 1.872524,2.721908 1.989028,0.87207 8.063369,2.120966 13.366432,2.748166 3.75897,0.444579 14.416503,0.376582 18.560001,-0.118416 z M 19.264001,33.856001 c -0.528411,-0.528409 -0.480778,-2.051798 0.12876,-4.11792 0.366764,-1.243203 0.902921,-2.113697 1.88306,-3.057301 4.155026,-4.000147 10.757707,-1.434806 11.570548,4.495507 0.421495,3.075148 -0.722957,4.021897 -2.324135,1.922642 -2.411986,-3.162276 -6.947707,-3.089466 -9.331813,0.149799 -0.778689,1.057997 -1.308638,1.225056 -1.92642,0.607273 z m 9.473596,-6.733896 c 0.278123,-1.42819 -3.66178,-2.113824 -4.997257,-0.869638 -1.356259,1.263548 -1.035719,1.46513 2.246789,1.412962 2.130722,-0.03386 2.672081,-0.140802 2.750468,-0.543324 z m 15.296642,6.611724 c -0.410714,-1.070298 -0.157133,-3.240079 0.558182,-4.776157 2.116966,-4.546004 7.536899,-5.645194 10.95946,-2.222634 1.890726,1.890725 2.894371,5.283734 2.036864,6.886 -0.484676,0.905623 -1.338704,0.755203 -2.068743,-0.364365 -0.918195,-1.408117 -2.973504,-2.536672 -4.619754,-2.536672 -1.811776,0 -3.331267,0.764042 -4.53032,2.277975 -1.025289,1.294531 -2.003094,1.602585 -2.335689,0.735853 z m 9.547968,-6.442843 c 0.309427,-0.806358 -1.135779,-1.690985 -2.762544,-1.690985 -1.463706,0 -2.819661,0.743781 -2.819661,1.546667 0,0.486153 0.247443,0.533266 2.846806,0.542028 1.796727,0.0061 2.626768,-0.114626 2.735399,-0.39771 z"
       id="path844"
       inkscape:connector-curvature="0" />
    <path
       style="fill:#063429;stroke-width:0.32000002"
       d="M 35.401742,65.266227 C 24.056281,63.920482 14.935651,56.259196 12.676151,46.176831 c -0.626815,-2.796977 -0.64451,-3.638964 -0.09235,-4.394097 0.406224,-0.555542 0.56545,-0.544121 3.838047,0.2753 13.718487,3.434947 32.041138,3.328749 45.088873,-0.261341 2.090265,-0.575139 2.735872,-0.440576 3.003571,0.626022 0.297971,1.187207 -0.783258,5.830727 -1.93081,8.292189 -4.523112,9.701946 -16.048514,15.871892 -27.18174,14.551323 z m 8.084951,-2.379917 c 1.47768,-0.260052 2.95368,-0.557559 3.28,-0.661127 0.924579,-0.293449 0.699187,-1.308051 -0.446691,-2.010777 -3.8544,-2.36377 -11.985601,-2.36377 -15.840001,0 -1.300522,0.797564 -1.375346,1.768499 -0.16,2.076204 4.31976,1.0937 9.106353,1.31026 13.166692,0.5957 z m 6.164983,-10.558401 c 6.157664,-0.864381 10.718003,-2.035955 11.546061,-2.966237 0.557664,-0.626505 1.522265,-3.643293 1.522265,-4.760864 0,-1.029635 -0.31119,-1.110387 -2.265737,-0.587949 -2.967098,0.793088 -9.993626,1.705584 -16.30953,2.118026 -4.845092,0.316397 -7.216164,0.3144 -11.867831,-0.01002 -6.174614,-0.430608 -13.068225,-1.342774 -15.931165,-2.108022 -0.953844,-0.254957 -1.853844,-0.389652 -2,-0.299322 -0.744578,0.460173 0.288186,4.66943 1.380643,5.627117 0.998895,0.875667 5.818629,2.063683 12.072489,2.975747 4.042275,0.589527 17.68396,0.596711 21.852805,0.01152 z M 19.413334,34.026667 c -0.447479,-0.447478 -0.18501,-3.817415 0.394619,-5.066666 0.689318,-1.485658 2.400508,-3.184892 3.552048,-3.527228 0.786688,-0.233871 0.790254,-0.22691 0.214285,0.418311 -0.322142,0.360876 -0.538142,0.987838 -0.48,1.393248 0.100378,0.699899 0.239897,0.738132 2.763807,0.757378 3.213914,0.02451 3.731194,-0.329758 2.638846,-1.807237 l -0.723635,-0.978769 0.753349,0.216893 c 1.383503,0.398316 3.38823,2.816105 3.956871,4.772161 0.564874,1.943096 0.409389,3.638277 -0.360816,3.933832 -0.279241,0.107155 -0.966354,-0.403379 -1.766861,-1.312803 -2.815603,-3.198692 -6.044203,-3.212195 -8.839151,-0.03697 -1.249774,1.419818 -1.672571,1.668637 -2.103362,1.237847 z m 24.72198,-0.472797 c -0.876314,-1.637404 0.823888,-6.106638 2.845773,-7.480545 1.615708,-1.097902 2.174477,-1.031921 1.298208,0.153296 -1.067044,1.443254 -0.532749,1.799453 2.662614,1.775089 2.523911,-0.01924 2.663431,-0.05748 2.763808,-0.757378 0.05814,-0.40541 -0.144176,-1.013234 -0.449597,-1.35072 -0.663132,-0.732751 -0.422723,-0.778255 0.792273,-0.149958 2.217052,1.146484 3.546297,3.642738 3.549824,6.666389 0.0026,2.15287 -0.697952,2.343846 -2.156496,0.587949 C 52.6651,29.655305 49.314722,29.564653 46.50541,32.7562 c -1.463136,1.662211 -1.8396,1.788912 -2.370096,0.79767 z"
       id="path842"
       inkscape:connector-curvature="0" />
    <path
       style="fill:#01250a;stroke-width:0.32000002"
       d="M 34.335851,64.962191 C 33.244568,64.80823 31.142758,64.265555 29.665166,63.756252 22.716327,61.361087 17.716187,57.111634 14.702538,51.040002 12.668172,46.941346 11.7779,42.169336 12.962787,41.714651 c 0.265533,-0.101894 1.669533,0.116467 3.120001,0.485248 7.456066,1.895703 12.157779,2.40168 22.317214,2.40168 10.159433,0 14.861146,-0.505977 22.317213,-2.40168 1.450467,-0.368781 2.854467,-0.587142 3.12,-0.485248 0.634013,0.243296 0.637095,2.452512 0.0068,4.909738 -0.646934,2.522285 -2.709254,6.586963 -4.468259,8.806599 -3.09848,3.909885 -8.61538,7.426115 -13.923767,8.874403 -2.754525,0.751514 -8.174858,1.071776 -11.116183,0.6568 z m 9.150842,-2.075881 c 3.396304,-0.5977 3.772266,-0.721428 4.000662,-1.316628 0.303636,-0.791254 -1.237529,-1.914819 -3.722518,-2.713849 -4.460919,-1.434375 -11.502135,-0.678948 -13.836503,1.484473 -0.951139,0.881485 -0.78307,1.652692 0.426964,1.959165 4.28127,1.084346 9.084636,1.299008 13.131395,0.586839 z m 5.485472,-10.223662 c 4.276899,-0.533296 8.763748,-1.478409 11.016932,-2.320608 1.532838,-0.572947 1.61424,-0.667398 2.299408,-2.668006 0.798089,-2.330323 0.944147,-4.036483 0.362153,-4.23048 -0.21414,-0.07138 -1.47414,0.122077 -2.8,0.429907 -12.335968,2.86407 -30.585227,2.859578 -42.94671,-0.01056 -1.35083,-0.313642 -2.632349,-0.461299 -2.847822,-0.328131 -0.556316,0.343821 -0.141917,2.992499 0.748611,4.784829 0.593115,1.193741 0.974426,1.534169 2.232845,1.993449 1.937566,0.707143 7.170726,1.782333 11.282419,2.318058 4.456061,0.580589 16.106302,0.59839 20.652164,0.03155 z M 19.322826,33.085816 c -0.488588,-1.946693 0.977172,-5.507069 2.7899,-6.776754 0.679663,-0.476054 0.701868,-0.465346 0.515204,0.248457 -0.41239,1.576983 0.174227,1.922482 3.264147,1.922482 3.150948,0 3.776211,-0.326871 3.410735,-1.783041 -0.195653,-0.779546 -0.168702,-0.803367 0.4325,-0.382269 1.630613,1.142126 2.904689,3.873112 2.904689,6.226213 0,1.652464 -0.78424,1.699632 -2.129436,0.128073 -1.2917,-1.509061 -3.178784,-2.592332 -4.497816,-2.581948 -1.429065,0.01125 -3.398143,1.080517 -4.621303,2.509507 -1.315311,1.536643 -1.778265,1.646144 -2.06862,0.48928 z m 24.944997,0.333603 c -0.659815,-1.719455 0.977257,-5.976566 2.745561,-7.139675 0.765069,-0.503226 0.770941,-0.498964 0.546221,0.39639 -0.378854,1.509479 0.167587,1.803867 3.34832,1.803867 3.098576,0 3.664951,-0.337444 3.27,-1.948265 -0.184646,-0.7531 -0.164227,-0.748555 0.845738,0.188265 1.767885,1.639852 2.854874,4.538808 2.392554,6.380839 -0.284484,1.133481 -0.693776,1.030669 -2.007658,-0.504304 -1.223162,-1.42899 -3.19224,-2.498257 -4.621306,-2.509507 -1.307632,-0.01029 -3.202736,1.068939 -4.463565,2.541935 -1.179385,1.377847 -1.746752,1.595991 -2.055865,0.790455 z"
       id="path840"
       inkscape:connector-curvature="0" />
    <path
       style="fill:#001505;stroke-width:0.32000002"
       d="m 35.360001,64.602111 c -2.649328,-0.230624 -4.852174,-0.694016 -5.225352,-1.099206 -0.118056,-0.128186 0.505352,-0.10729 1.385352,0.04643 2.071792,0.36191 11.688209,0.36191 13.760001,0 2.058675,-0.359619 1.730387,0.01072 -0.511562,0.577104 -2.217574,0.560214 -6.152099,0.759136 -9.408439,0.47567 z m 11.680001,-1.367872 c 0,-0.06917 0.223478,-0.21152 0.496621,-0.316336 0.284774,-0.109277 0.413222,-0.05563 0.301113,0.125763 -0.187923,0.304068 -0.797734,0.449744 -0.797734,0.190573 z m 7.550112,-4.386179 c 2.195824,-2.413037 3.026301,-3.928663 3.099699,-5.656973 l 0.07019,-1.652659 1.878672,-0.702692 c 2.088663,-0.781235 2.394756,-1.232528 3.211978,-4.735648 0.349197,-1.496883 0.361821,-2.019523 0.05878,-2.433955 -0.357114,-0.488381 -0.611354,-0.479466 -3.407667,0.119501 -8.4617,1.81248 -18.721934,2.583465 -26.769195,2.011523 -6.079503,-0.432093 -13.05136,-1.363072 -16.356282,-2.184118 -1.808131,-0.449201 -2.075378,-0.451092 -2.508714,-0.01776 -0.433123,0.433123 -0.433249,0.68608 -0.0012,2.364857 0.978268,3.80097 1.236918,4.105037 4.3454,5.10841 1.534403,0.495283 1.648786,0.589709 1.003512,0.828413 -0.558834,0.206726 -0.683586,0.436192 -0.536168,0.986224 0.105666,0.394246 0.194086,0.88007 0.196489,1.079606 0.0051,0.422023 2.832365,4.650333 3.329774,4.979809 0.184834,0.122428 0.263109,0.295552 0.173945,0.384716 -0.08916,0.08916 -0.981729,-0.488086 -1.983479,-1.282774 -3.662082,-2.90513 -6.840813,-8.406887 -7.634724,-13.214202 -0.325102,-1.968567 -0.311248,-2.377386 0.09431,-2.782938 0.420521,-0.420522 0.749466,-0.401779 2.849969,0.16239 13.473065,3.618695 33.736467,3.556417 46.017891,-0.141436 1.542311,-0.464378 1.774426,-0.467764 2.209968,-0.03222 0.418788,0.418787 0.433511,0.808464 0.105575,2.794205 -0.798474,4.834944 -4.133555,10.557533 -7.740916,13.282461 -2.394192,1.808525 -2.871462,2.013997 -1.707827,0.735254 z M 33.760001,57.390021 c 0.892791,-0.359017 2.296423,-0.514726 4.640001,-0.514726 2.343577,0 3.747209,0.155709 4.64,0.514726 l 1.28,0.514727 -1.28,-0.219565 c -1.653709,-0.28367 -7.626292,-0.28367 -9.280001,0 l -1.28,0.219565 z M 19.630527,33.426465 c -0.266253,-0.693843 0.160598,-3.603732 0.674372,-4.597261 0.236269,-0.456892 0.754929,-1.118374 1.152578,-1.469958 l 0.722999,-0.639245 -0.243603,0.8 c -0.492666,1.617929 -0.575476,2.95365 -0.197595,3.187193 0.269674,0.166667 0.120561,0.657248 -0.520692,1.713063 -0.961031,1.58233 -1.287583,1.789236 -1.588059,1.006208 z M 30.757045,32.483886 C 30.13943,31.31967 30.069999,30.95763 30.390324,30.571661 c 0.315923,-0.380663 0.292536,-0.777228 -0.11666,-1.978151 -0.281488,-0.826123 -0.458135,-1.555704 -0.392548,-1.62129 0.06559,-0.06559 0.486462,0.31716 0.935279,0.850548 1.493369,1.774767 2.250758,6.097233 1.068366,6.097233 -0.201222,0 -0.708695,-0.646253 -1.127716,-1.436115 z m 13.527088,0.607126 c -0.114435,-0.455945 -0.03271,-1.427945 0.181606,-2.160001 0.468381,-1.599853 1.840535,-4.05101 2.267751,-4.05101 0.380112,0 0.361955,0.193898 -0.149827,1.6 -0.275229,0.756178 -0.312282,1.396813 -0.114061,1.97215 0.236413,0.686195 0.132803,1.106852 -0.532019,2.160001 -0.957658,1.517027 -1.363396,1.634534 -1.65345,0.47886 z M 55.71238,32.539268 c -0.613354,-1.122791 -0.688666,-1.510906 -0.398429,-2.053219 0.273622,-0.511267 0.24583,-0.986324 -0.118032,-2.017617 -0.565968,-1.604129 -0.57431,-1.687012 -0.14295,-1.420417 0.990243,0.612004 1.917292,2.790282 1.990614,4.677324 0.04335,1.115558 -0.06452,2.016851 -0.249235,2.08257 -0.179111,0.06372 -0.665997,-0.507165 -1.081968,-1.268641 z"
       id="path838"
       inkscape:connector-curvature="0" />
  </g>
</svg>
